<mxfile host="app.diagrams.net" agent="Mozilla/5.0 (Windows NT 10.0; Win64; x64) AppleWebKit/537.36 (KHTML, like Gecko) Chrome/137.0.0.0 Safari/537.36" version="27.2.0" pages="5">
  <diagram name="요구사항분석" id="si9WiEyHauwOeKY3Vzi-">
    <mxGraphModel dx="464" dy="818" grid="1" gridSize="10" guides="1" tooltips="1" connect="1" arrows="1" fold="1" page="1" pageScale="1" pageWidth="827" pageHeight="1169" math="0" shadow="0">
      <root>
        <mxCell id="0" />
        <mxCell id="1" parent="0" />
        <mxCell id="LVaz8bQsQqEIjGHbkDQo-53" value="" style="shape=card;whiteSpace=wrap;html=1;" parent="1" vertex="1">
          <mxGeometry x="25" y="10" width="1005" height="650" as="geometry" />
        </mxCell>
        <mxCell id="LVaz8bQsQqEIjGHbkDQo-34" value="" style="rounded=0;whiteSpace=wrap;html=1;" parent="1" vertex="1">
          <mxGeometry x="775" y="110" width="240" height="530" as="geometry" />
        </mxCell>
        <mxCell id="LVaz8bQsQqEIjGHbkDQo-33" value="" style="rounded=0;whiteSpace=wrap;html=1;" parent="1" vertex="1">
          <mxGeometry x="530" y="110" width="240" height="530" as="geometry" />
        </mxCell>
        <mxCell id="LVaz8bQsQqEIjGHbkDQo-32" value="" style="rounded=0;whiteSpace=wrap;html=1;" parent="1" vertex="1">
          <mxGeometry x="285" y="110" width="240" height="530" as="geometry" />
        </mxCell>
        <mxCell id="LVaz8bQsQqEIjGHbkDQo-31" value="" style="rounded=0;whiteSpace=wrap;html=1;" parent="1" vertex="1">
          <mxGeometry x="40" y="110" width="240" height="530" as="geometry" />
        </mxCell>
        <mxCell id="LVaz8bQsQqEIjGHbkDQo-35" value="인증서비스" style="rounded=0;whiteSpace=wrap;html=1;fillColor=#e1d5e7;strokeColor=#9673a6;" parent="1" vertex="1">
          <mxGeometry x="40" y="110" width="240" height="30" as="geometry" />
        </mxCell>
        <mxCell id="LVaz8bQsQqEIjGHbkDQo-36" value="인증서비스" style="rounded=0;whiteSpace=wrap;html=1;fillColor=#e1d5e7;strokeColor=#9673a6;" parent="1" vertex="1">
          <mxGeometry x="285" y="110" width="240" height="30" as="geometry" />
        </mxCell>
        <mxCell id="LVaz8bQsQqEIjGHbkDQo-37" value="인증서비스" style="rounded=0;whiteSpace=wrap;html=1;fillColor=#e1d5e7;strokeColor=#9673a6;" parent="1" vertex="1">
          <mxGeometry x="530" y="110" width="240" height="30" as="geometry" />
        </mxCell>
        <mxCell id="LVaz8bQsQqEIjGHbkDQo-38" value="인증서비스" style="rounded=0;whiteSpace=wrap;html=1;fillColor=#e1d5e7;strokeColor=#9673a6;" parent="1" vertex="1">
          <mxGeometry x="775" y="110" width="240" height="30" as="geometry" />
        </mxCell>
        <mxCell id="LVaz8bQsQqEIjGHbkDQo-39" value="도서 서비스" style="rounded=0;whiteSpace=wrap;html=1;fillColor=#e1d5e7;strokeColor=#9673a6;" parent="1" vertex="1">
          <mxGeometry x="40" y="280" width="240" height="30" as="geometry" />
        </mxCell>
        <mxCell id="LVaz8bQsQqEIjGHbkDQo-40" value="도서 서비스" style="rounded=0;whiteSpace=wrap;html=1;fillColor=#e1d5e7;strokeColor=#9673a6;" parent="1" vertex="1">
          <mxGeometry x="285" y="280" width="240" height="30" as="geometry" />
        </mxCell>
        <mxCell id="LVaz8bQsQqEIjGHbkDQo-41" value="도서 서비스" style="rounded=0;whiteSpace=wrap;html=1;fillColor=#e1d5e7;strokeColor=#9673a6;" parent="1" vertex="1">
          <mxGeometry x="530" y="280" width="240" height="30" as="geometry" />
        </mxCell>
        <mxCell id="LVaz8bQsQqEIjGHbkDQo-42" value="도서 서비스" style="rounded=0;whiteSpace=wrap;html=1;fillColor=#e1d5e7;strokeColor=#9673a6;" parent="1" vertex="1">
          <mxGeometry x="775" y="280" width="240" height="30" as="geometry" />
        </mxCell>
        <mxCell id="LVaz8bQsQqEIjGHbkDQo-43" value="대여 서비스" style="rounded=0;whiteSpace=wrap;html=1;fillColor=#e1d5e7;strokeColor=#9673a6;" parent="1" vertex="1">
          <mxGeometry x="40" y="450" width="240" height="30" as="geometry" />
        </mxCell>
        <mxCell id="LVaz8bQsQqEIjGHbkDQo-44" value="대여 서비스" style="rounded=0;whiteSpace=wrap;html=1;fillColor=#e1d5e7;strokeColor=#9673a6;" parent="1" vertex="1">
          <mxGeometry x="285" y="450" width="240" height="30" as="geometry" />
        </mxCell>
        <mxCell id="LVaz8bQsQqEIjGHbkDQo-45" value="대여 서비스" style="rounded=0;whiteSpace=wrap;html=1;fillColor=#e1d5e7;strokeColor=#9673a6;" parent="1" vertex="1">
          <mxGeometry x="530" y="450" width="240" height="30" as="geometry" />
        </mxCell>
        <mxCell id="LVaz8bQsQqEIjGHbkDQo-46" value="대여 서비스" style="rounded=0;whiteSpace=wrap;html=1;fillColor=#e1d5e7;strokeColor=#9673a6;" parent="1" vertex="1">
          <mxGeometry x="775" y="450" width="240" height="30" as="geometry" />
        </mxCell>
        <mxCell id="LVaz8bQsQqEIjGHbkDQo-2" value="&lt;font style=&quot;font-size: 24px;&quot;&gt;도서 관리 프로그램&lt;/font&gt;" style="text;html=1;align=center;verticalAlign=middle;resizable=0;points=[];autosize=1;strokeColor=none;fillColor=none;" parent="1" vertex="1">
          <mxGeometry x="55" y="20" width="210" height="40" as="geometry" />
        </mxCell>
        <mxCell id="LVaz8bQsQqEIjGHbkDQo-3" value="사서" style="text;html=1;align=center;verticalAlign=middle;resizable=0;points=[];autosize=1;strokeColor=none;fillColor=none;" parent="1" vertex="1">
          <mxGeometry x="290" y="68" width="50" height="30" as="geometry" />
        </mxCell>
        <mxCell id="LVaz8bQsQqEIjGHbkDQo-4" value="비회원" style="text;html=1;align=center;verticalAlign=middle;resizable=0;points=[];autosize=1;strokeColor=none;fillColor=none;" parent="1" vertex="1">
          <mxGeometry x="560" y="68" width="60" height="30" as="geometry" />
        </mxCell>
        <mxCell id="LVaz8bQsQqEIjGHbkDQo-5" value="회원" style="text;html=1;align=center;verticalAlign=middle;resizable=0;points=[];autosize=1;strokeColor=none;fillColor=none;" parent="1" vertex="1">
          <mxGeometry x="40" y="68" width="50" height="30" as="geometry" />
        </mxCell>
        <mxCell id="LVaz8bQsQqEIjGHbkDQo-6" value="관리자" style="text;html=1;align=center;verticalAlign=middle;resizable=0;points=[];autosize=1;strokeColor=none;fillColor=none;" parent="1" vertex="1">
          <mxGeometry x="840" y="68" width="60" height="30" as="geometry" />
        </mxCell>
        <mxCell id="LVaz8bQsQqEIjGHbkDQo-20" value="&lt;div&gt;&lt;span style=&quot;background-color: transparent; color: light-dark(rgb(0, 0, 0), rgb(255, 255, 255));&quot;&gt;회원은 도서조회(Read) 할 수 있다&lt;/span&gt;&lt;/div&gt;&lt;div&gt;&lt;br&gt;&lt;/div&gt;&lt;div&gt;&lt;br&gt;&lt;/div&gt;" style="text;html=1;align=left;verticalAlign=middle;resizable=0;points=[];autosize=1;strokeColor=none;fillColor=none;fontSize=10;" parent="1" vertex="1">
          <mxGeometry x="45" y="325" width="170" height="50" as="geometry" />
        </mxCell>
        <mxCell id="LVaz8bQsQqEIjGHbkDQo-21" value="&lt;div&gt;&lt;span style=&quot;background-color: transparent; color: light-dark(rgb(0, 0, 0), rgb(255, 255, 255));&quot;&gt;회원은 나의정보 조회(Read) 할 수 있다&lt;/span&gt;&lt;/div&gt;&lt;div&gt;회원은 나의정보 수정(Update) 할 수 있다&lt;/div&gt;&lt;div&gt;회원은 회원탈퇴(Delete) 할 수 있다&lt;/div&gt;&lt;div&gt;&lt;br&gt;&lt;/div&gt;&lt;div&gt;회원은 로그인(Process) 할 수 있다&lt;/div&gt;&lt;div&gt;회원은 로그아웃&lt;span style=&quot;background-color: transparent; color: light-dark(rgb(0, 0, 0), rgb(255, 255, 255));&quot;&gt;(Process)&lt;/span&gt;&lt;span style=&quot;background-color: transparent; color: light-dark(rgb(0, 0, 0), rgb(255, 255, 255));&quot;&gt;&amp;nbsp;할 수 있다&lt;/span&gt;&lt;/div&gt;&lt;div&gt;&lt;br&gt;&lt;/div&gt;" style="text;html=1;align=left;verticalAlign=middle;resizable=0;points=[];autosize=1;strokeColor=none;fillColor=none;fontSize=10;" parent="1" vertex="1">
          <mxGeometry x="45" y="155" width="200" height="100" as="geometry" />
        </mxCell>
        <mxCell id="LVaz8bQsQqEIjGHbkDQo-22" value="&lt;br&gt;&lt;div&gt;&lt;br&gt;&lt;/div&gt;&lt;div&gt;회원은 나의 내역을 조회(Read) 할 수 있다&lt;/div&gt;&lt;div&gt;회원은 대여 연장 처리(Update)를 할 수 있다&lt;/div&gt;&lt;div&gt;&lt;br&gt;&lt;/div&gt;&lt;div&gt;&lt;br&gt;&lt;/div&gt;" style="text;html=1;align=left;verticalAlign=middle;resizable=0;points=[];autosize=1;strokeColor=none;fillColor=none;fontSize=10;" parent="1" vertex="1">
          <mxGeometry x="45" y="465" width="210" height="90" as="geometry" />
        </mxCell>
        <mxCell id="LVaz8bQsQqEIjGHbkDQo-23" value="&lt;br&gt;&lt;div&gt;비회원은 회원가입(Create)을 할 수 있다&lt;/div&gt;&lt;div&gt;&lt;br&gt;&lt;/div&gt;" style="text;html=1;align=left;verticalAlign=middle;resizable=0;points=[];autosize=1;strokeColor=none;fillColor=none;fontSize=10;" parent="1" vertex="1">
          <mxGeometry x="535" y="155" width="190" height="50" as="geometry" />
        </mxCell>
        <mxCell id="LVaz8bQsQqEIjGHbkDQo-25" value="&lt;div&gt;&lt;span style=&quot;background-color: transparent; color: light-dark(rgb(0, 0, 0), rgb(255, 255, 255));&quot;&gt;사서는 나의정보 조회(Read) 할 수 있다&lt;/span&gt;&lt;/div&gt;&lt;div&gt;&lt;span style=&quot;background-color: transparent; color: light-dark(rgb(0, 0, 0), rgb(255, 255, 255));&quot;&gt;사서는&lt;/span&gt;&amp;nbsp;나의정보 수정(Update) 할 수 있다&lt;/div&gt;&lt;div&gt;&lt;span style=&quot;background-color: transparent; color: light-dark(rgb(0, 0, 0), rgb(255, 255, 255));&quot;&gt;사서는&lt;/span&gt;&amp;nbsp;회원탈퇴(Delete) 할 수 있다&lt;/div&gt;&lt;div&gt;&lt;br&gt;&lt;/div&gt;&lt;div&gt;&lt;span style=&quot;background-color: transparent; color: light-dark(rgb(0, 0, 0), rgb(255, 255, 255));&quot;&gt;사서는&lt;/span&gt;&amp;nbsp;로그인(Process) 할 수 있다&lt;/div&gt;&lt;div&gt;&lt;span style=&quot;background-color: transparent; color: light-dark(rgb(0, 0, 0), rgb(255, 255, 255));&quot;&gt;사서는&lt;/span&gt;&amp;nbsp;로그아웃&lt;span style=&quot;background-color: transparent; color: light-dark(rgb(0, 0, 0), rgb(255, 255, 255));&quot;&gt;(Process)&lt;/span&gt;&lt;span style=&quot;background-color: transparent; color: light-dark(rgb(0, 0, 0), rgb(255, 255, 255));&quot;&gt;&amp;nbsp;할 수 있다&lt;/span&gt;&lt;/div&gt;&lt;div&gt;&lt;br&gt;&lt;/div&gt;" style="text;html=1;align=left;verticalAlign=middle;resizable=0;points=[];autosize=1;strokeColor=none;fillColor=none;fontSize=10;" parent="1" vertex="1">
          <mxGeometry x="290" y="155" width="200" height="100" as="geometry" />
        </mxCell>
        <mxCell id="LVaz8bQsQqEIjGHbkDQo-28" value="&lt;br&gt;&lt;div&gt;사서는 도서등록(Create) 할 수 있다&lt;/div&gt;&lt;div&gt;사서는 도서조회(Read) 할 수 있다&lt;/div&gt;&lt;div&gt;사서는 도서수정(Update) 할 수 있다&lt;/div&gt;&lt;div&gt;사서는 도서삭제(Delete) 할 수 있다&lt;/div&gt;&lt;div&gt;&lt;br&gt;&lt;/div&gt;" style="text;html=1;align=left;verticalAlign=middle;resizable=0;points=[];autosize=1;strokeColor=none;fillColor=none;fontSize=10;" parent="1" vertex="1">
          <mxGeometry x="300" y="315" width="170" height="90" as="geometry" />
        </mxCell>
        <mxCell id="LVaz8bQsQqEIjGHbkDQo-29" value="&lt;br&gt;&lt;div&gt;&lt;span style=&quot;background-color: transparent; color: light-dark(rgb(0, 0, 0), rgb(255, 255, 255));&quot;&gt;비회원은 도서조회(Read) 할 수 있다&lt;/span&gt;&lt;/div&gt;&lt;div&gt;&lt;br&gt;&lt;/div&gt;" style="text;html=1;align=left;verticalAlign=middle;resizable=0;points=[];autosize=1;strokeColor=none;fillColor=none;fontSize=10;" parent="1" vertex="1">
          <mxGeometry x="535" y="315" width="180" height="50" as="geometry" />
        </mxCell>
        <mxCell id="LVaz8bQsQqEIjGHbkDQo-30" value="&lt;br&gt;&lt;div&gt;사서는 대여처리(Create) 를 할 수 있다&lt;/div&gt;&lt;div&gt;사서는 유저의 대여 내역을 조회(Read) 할 수 있다&lt;/div&gt;&lt;div&gt;사서는 유저의 대여 연장 처리(Update) 할 수 있다&lt;/div&gt;&lt;div&gt;사서는 반납 완료 처리(Delete) 를 할 수 있다&lt;/div&gt;&lt;div&gt;&amp;nbsp;&lt;/div&gt;" style="text;html=1;align=left;verticalAlign=middle;resizable=0;points=[];autosize=1;strokeColor=none;fillColor=none;fontSize=10;" parent="1" vertex="1">
          <mxGeometry x="285" y="475" width="230" height="90" as="geometry" />
        </mxCell>
        <mxCell id="LVaz8bQsQqEIjGHbkDQo-49" value="회원" style="rounded=0;whiteSpace=wrap;html=1;fillColor=#dae8fc;strokeColor=#6c8ebf;" parent="1" vertex="1">
          <mxGeometry x="40" y="68" width="240" height="30" as="geometry" />
        </mxCell>
        <mxCell id="LVaz8bQsQqEIjGHbkDQo-50" value="사서" style="rounded=0;whiteSpace=wrap;html=1;fillColor=#dae8fc;strokeColor=#6c8ebf;" parent="1" vertex="1">
          <mxGeometry x="285" y="68" width="240" height="30" as="geometry" />
        </mxCell>
        <mxCell id="LVaz8bQsQqEIjGHbkDQo-51" value="관리자" style="rounded=0;whiteSpace=wrap;html=1;fillColor=#dae8fc;strokeColor=#6c8ebf;" parent="1" vertex="1">
          <mxGeometry x="775" y="68" width="240" height="30" as="geometry" />
        </mxCell>
        <mxCell id="LVaz8bQsQqEIjGHbkDQo-52" value="비회원" style="rounded=0;whiteSpace=wrap;html=1;fillColor=#dae8fc;strokeColor=#6c8ebf;" parent="1" vertex="1">
          <mxGeometry x="530" y="68" width="240" height="30" as="geometry" />
        </mxCell>
      </root>
    </mxGraphModel>
  </diagram>
  <diagram id="mlPW559dNbRlIIkARRyd" name="USECASE">
    <mxGraphModel dx="804" dy="2131" grid="1" gridSize="10" guides="1" tooltips="1" connect="1" arrows="1" fold="1" page="1" pageScale="1" pageWidth="827" pageHeight="1169" math="0" shadow="0">
      <root>
        <mxCell id="0" />
        <mxCell id="1" parent="0" />
        <mxCell id="kBJ0tDCweXwLKOdb1bBY-1" value="영화 예매 프로그램" style="shape=umlFrame;whiteSpace=wrap;html=1;pointerEvents=0;width=110;height=30;" vertex="1" parent="1">
          <mxGeometry x="210" y="-90" width="730" height="890" as="geometry" />
        </mxCell>
        <mxCell id="kBJ0tDCweXwLKOdb1bBY-2" value="회원" style="shape=umlActor;verticalLabelPosition=bottom;verticalAlign=top;html=1;" vertex="1" parent="1">
          <mxGeometry x="10" y="180" width="30" height="60" as="geometry" />
        </mxCell>
        <mxCell id="kBJ0tDCweXwLKOdb1bBY-3" value="비회원" style="shape=umlActor;verticalLabelPosition=bottom;verticalAlign=top;html=1;" vertex="1" parent="1">
          <mxGeometry x="10" y="500" width="30" height="60" as="geometry" />
        </mxCell>
        <mxCell id="kBJ0tDCweXwLKOdb1bBY-5" value="영화조회" style="ellipse;whiteSpace=wrap;html=1;" vertex="1" parent="1">
          <mxGeometry x="370" y="40" width="60" height="60" as="geometry" />
        </mxCell>
        <mxCell id="kBJ0tDCweXwLKOdb1bBY-9" value="use" style="html=1;verticalAlign=bottom;endArrow=block;curved=0;rounded=0;entryX=0.066;entryY=0.792;entryDx=0;entryDy=0;entryPerimeter=0;" edge="1" parent="1" source="kBJ0tDCweXwLKOdb1bBY-2" target="MtEOHC34fdI9ZBYdHWnp-3">
          <mxGeometry width="80" relative="1" as="geometry">
            <mxPoint x="260" y="340" as="sourcePoint" />
            <mxPoint x="350" y="150" as="targetPoint" />
          </mxGeometry>
        </mxCell>
        <mxCell id="kBJ0tDCweXwLKOdb1bBY-10" value="use" style="html=1;verticalAlign=bottom;endArrow=block;curved=0;rounded=0;exitX=0.7;exitY=0.367;exitDx=0;exitDy=0;exitPerimeter=0;entryX=0;entryY=0.5;entryDx=0;entryDy=0;" edge="1" parent="1" source="kBJ0tDCweXwLKOdb1bBY-3" target="MtEOHC34fdI9ZBYdHWnp-3">
          <mxGeometry x="-0.0018" width="80" relative="1" as="geometry">
            <mxPoint x="450" y="360" as="sourcePoint" />
            <mxPoint x="530" y="360" as="targetPoint" />
            <mxPoint as="offset" />
          </mxGeometry>
        </mxCell>
        <mxCell id="kBJ0tDCweXwLKOdb1bBY-16" value="" style="endArrow=open;dashed=1;endFill=0;endSize=12;html=1;rounded=0;exitX=0;exitY=0.5;exitDx=0;exitDy=0;entryX=1;entryY=0;entryDx=0;entryDy=0;" edge="1" parent="1">
          <mxGeometry width="160" relative="1" as="geometry">
            <mxPoint x="1350.5" y="60" as="sourcePoint" />
            <mxPoint x="1209.9974746830583" y="145.25126265847075" as="targetPoint" />
          </mxGeometry>
        </mxCell>
        <mxCell id="kBJ0tDCweXwLKOdb1bBY-17" value="&amp;lt;&amp;lt;include&amp;gt;&amp;gt;" style="edgeLabel;html=1;align=center;verticalAlign=middle;resizable=0;points=[];" vertex="1" connectable="0" parent="kBJ0tDCweXwLKOdb1bBY-16">
          <mxGeometry x="0.012" y="-4" relative="1" as="geometry">
            <mxPoint x="13" y="-5" as="offset" />
          </mxGeometry>
        </mxCell>
        <mxCell id="kBJ0tDCweXwLKOdb1bBY-18" value="" style="endArrow=open;dashed=1;endFill=0;endSize=12;html=1;rounded=0;exitX=0;exitY=0.5;exitDx=0;exitDy=0;entryX=1.013;entryY=0.598;entryDx=0;entryDy=0;entryPerimeter=0;" edge="1" parent="1">
          <mxGeometry width="160" relative="1" as="geometry">
            <mxPoint x="1350.5" y="170" as="sourcePoint" />
            <mxPoint x="1232.3200000000002" y="176.8599999999999" as="targetPoint" />
          </mxGeometry>
        </mxCell>
        <mxCell id="kBJ0tDCweXwLKOdb1bBY-19" value="&amp;lt;&amp;lt;include&amp;gt;&amp;gt;" style="edgeLabel;html=1;align=center;verticalAlign=middle;resizable=0;points=[];" vertex="1" connectable="0" parent="kBJ0tDCweXwLKOdb1bBY-18">
          <mxGeometry x="0.0324" y="1" relative="1" as="geometry">
            <mxPoint as="offset" />
          </mxGeometry>
        </mxCell>
        <mxCell id="kBJ0tDCweXwLKOdb1bBY-20" value="" style="endArrow=open;dashed=1;endFill=0;endSize=12;html=1;rounded=0;exitX=0.023;exitY=0.406;exitDx=0;exitDy=0;exitPerimeter=0;entryX=1;entryY=1;entryDx=0;entryDy=0;" edge="1" parent="1">
          <mxGeometry width="160" relative="1" as="geometry">
            <mxPoint x="1353.7199999999998" y="273.4200000000001" as="sourcePoint" />
            <mxPoint x="1209.9974746830583" y="194.74873734152925" as="targetPoint" />
          </mxGeometry>
        </mxCell>
        <mxCell id="kBJ0tDCweXwLKOdb1bBY-21" value="&amp;lt;&amp;lt;include&amp;gt;&amp;gt;" style="edgeLabel;html=1;align=center;verticalAlign=middle;resizable=0;points=[];" vertex="1" connectable="0" parent="kBJ0tDCweXwLKOdb1bBY-20">
          <mxGeometry x="0.015" y="-1" relative="1" as="geometry">
            <mxPoint as="offset" />
          </mxGeometry>
        </mxCell>
        <mxCell id="kBJ0tDCweXwLKOdb1bBY-22" value="" style="ellipse;whiteSpace=wrap;html=1;" vertex="1" parent="1">
          <mxGeometry x="270" y="220" width="50" height="50" as="geometry" />
        </mxCell>
        <mxCell id="kBJ0tDCweXwLKOdb1bBY-23" value="키워드" style="ellipse;whiteSpace=wrap;html=1;" vertex="1" parent="1">
          <mxGeometry x="350" y="220" width="50" height="50" as="geometry" />
        </mxCell>
        <mxCell id="kBJ0tDCweXwLKOdb1bBY-24" value="" style="endArrow=open;dashed=1;endFill=0;endSize=12;html=1;rounded=0;exitX=0.5;exitY=0;exitDx=0;exitDy=0;entryX=0.35;entryY=0.983;entryDx=0;entryDy=0;entryPerimeter=0;" edge="1" parent="1" source="kBJ0tDCweXwLKOdb1bBY-22" target="kBJ0tDCweXwLKOdb1bBY-5">
          <mxGeometry width="160" relative="1" as="geometry">
            <mxPoint x="590" y="120" as="sourcePoint" />
            <mxPoint x="330" y="100" as="targetPoint" />
          </mxGeometry>
        </mxCell>
        <mxCell id="kBJ0tDCweXwLKOdb1bBY-25" value="&amp;lt;&amp;lt;extend&amp;gt;&amp;gt;" style="edgeLabel;html=1;align=center;verticalAlign=middle;resizable=0;points=[];" vertex="1" connectable="0" parent="kBJ0tDCweXwLKOdb1bBY-24">
          <mxGeometry x="0.012" y="-4" relative="1" as="geometry">
            <mxPoint x="13" y="-5" as="offset" />
          </mxGeometry>
        </mxCell>
        <mxCell id="kBJ0tDCweXwLKOdb1bBY-26" value="" style="endArrow=open;dashed=1;endFill=0;endSize=12;html=1;rounded=0;exitX=0.5;exitY=0;exitDx=0;exitDy=0;entryX=0.683;entryY=0.95;entryDx=0;entryDy=0;entryPerimeter=0;" edge="1" parent="1" source="kBJ0tDCweXwLKOdb1bBY-23" target="kBJ0tDCweXwLKOdb1bBY-5">
          <mxGeometry width="160" relative="1" as="geometry">
            <mxPoint x="490" y="194" as="sourcePoint" />
            <mxPoint x="390" y="100" as="targetPoint" />
          </mxGeometry>
        </mxCell>
        <mxCell id="kBJ0tDCweXwLKOdb1bBY-27" value="&amp;lt;&amp;lt;extend&amp;gt;&amp;gt;" style="edgeLabel;html=1;align=center;verticalAlign=middle;resizable=0;points=[];" vertex="1" connectable="0" parent="kBJ0tDCweXwLKOdb1bBY-26">
          <mxGeometry x="0.012" y="-4" relative="1" as="geometry">
            <mxPoint x="13" y="-5" as="offset" />
          </mxGeometry>
        </mxCell>
        <mxCell id="kBJ0tDCweXwLKOdb1bBY-28" value="회원가입" style="ellipse;whiteSpace=wrap;html=1;" vertex="1" parent="1">
          <mxGeometry x="290" y="510" width="140" height="70" as="geometry" />
        </mxCell>
        <mxCell id="kBJ0tDCweXwLKOdb1bBY-29" value="use" style="html=1;verticalAlign=bottom;endArrow=block;curved=0;rounded=0;exitX=0.67;exitY=0.399;exitDx=0;exitDy=0;exitPerimeter=0;entryX=0.016;entryY=0.376;entryDx=0;entryDy=0;entryPerimeter=0;" edge="1" parent="1" source="kBJ0tDCweXwLKOdb1bBY-3" target="kBJ0tDCweXwLKOdb1bBY-28">
          <mxGeometry x="-0.0018" width="80" relative="1" as="geometry">
            <mxPoint x="290" y="787" as="sourcePoint" />
            <mxPoint x="409" y="470" as="targetPoint" />
            <mxPoint as="offset" />
          </mxGeometry>
        </mxCell>
        <mxCell id="kBJ0tDCweXwLKOdb1bBY-30" value="관리자" style="shape=umlActor;verticalLabelPosition=bottom;verticalAlign=top;html=1;" vertex="1" parent="1">
          <mxGeometry x="1010" y="240" width="30" height="60" as="geometry" />
        </mxCell>
        <mxCell id="kBJ0tDCweXwLKOdb1bBY-31" value="회원관리" style="ellipse;whiteSpace=wrap;html=1;" vertex="1" parent="1">
          <mxGeometry x="660" y="520" width="120" height="40" as="geometry" />
        </mxCell>
        <mxCell id="kBJ0tDCweXwLKOdb1bBY-32" value="" style="edgeStyle=orthogonalEdgeStyle;rounded=0;orthogonalLoop=1;jettySize=auto;html=1;endArrow=block;endFill=0;" edge="1" parent="1" source="kBJ0tDCweXwLKOdb1bBY-33" target="kBJ0tDCweXwLKOdb1bBY-31">
          <mxGeometry relative="1" as="geometry" />
        </mxCell>
        <mxCell id="kBJ0tDCweXwLKOdb1bBY-33" value="조회" style="ellipse;whiteSpace=wrap;html=1;" vertex="1" parent="1">
          <mxGeometry x="630" y="600" width="40" height="40" as="geometry" />
        </mxCell>
        <mxCell id="kBJ0tDCweXwLKOdb1bBY-34" value="" style="edgeStyle=orthogonalEdgeStyle;rounded=0;orthogonalLoop=1;jettySize=auto;html=1;endArrow=block;endFill=0;" edge="1" parent="1" source="kBJ0tDCweXwLKOdb1bBY-35" target="kBJ0tDCweXwLKOdb1bBY-31">
          <mxGeometry relative="1" as="geometry" />
        </mxCell>
        <mxCell id="kBJ0tDCweXwLKOdb1bBY-35" value="등록" style="ellipse;whiteSpace=wrap;html=1;" vertex="1" parent="1">
          <mxGeometry x="680" y="600" width="40" height="40" as="geometry" />
        </mxCell>
        <mxCell id="kBJ0tDCweXwLKOdb1bBY-36" value="" style="edgeStyle=orthogonalEdgeStyle;rounded=0;orthogonalLoop=1;jettySize=auto;html=1;endArrow=block;endFill=0;" edge="1" parent="1" source="kBJ0tDCweXwLKOdb1bBY-37" target="kBJ0tDCweXwLKOdb1bBY-31">
          <mxGeometry relative="1" as="geometry" />
        </mxCell>
        <mxCell id="kBJ0tDCweXwLKOdb1bBY-37" value="수정" style="ellipse;whiteSpace=wrap;html=1;" vertex="1" parent="1">
          <mxGeometry x="730" y="600" width="40" height="40" as="geometry" />
        </mxCell>
        <mxCell id="kBJ0tDCweXwLKOdb1bBY-38" value="" style="edgeStyle=orthogonalEdgeStyle;rounded=0;orthogonalLoop=1;jettySize=auto;html=1;endArrow=block;endFill=0;" edge="1" parent="1" source="kBJ0tDCweXwLKOdb1bBY-39" target="kBJ0tDCweXwLKOdb1bBY-31">
          <mxGeometry relative="1" as="geometry" />
        </mxCell>
        <mxCell id="kBJ0tDCweXwLKOdb1bBY-39" value="삭제" style="ellipse;whiteSpace=wrap;html=1;" vertex="1" parent="1">
          <mxGeometry x="780" y="600" width="40" height="40" as="geometry" />
        </mxCell>
        <mxCell id="kBJ0tDCweXwLKOdb1bBY-40" value="use" style="html=1;verticalAlign=bottom;endArrow=block;curved=0;rounded=0;exitX=0.5;exitY=0.5;exitDx=0;exitDy=0;exitPerimeter=0;entryX=0.989;entryY=0.658;entryDx=0;entryDy=0;entryPerimeter=0;" edge="1" parent="1" source="kBJ0tDCweXwLKOdb1bBY-30" target="kBJ0tDCweXwLKOdb1bBY-31">
          <mxGeometry width="80" relative="1" as="geometry">
            <mxPoint x="1038" y="550" as="sourcePoint" />
            <mxPoint x="900" y="811" as="targetPoint" />
          </mxGeometry>
        </mxCell>
        <mxCell id="kBJ0tDCweXwLKOdb1bBY-42" value="일반&lt;div&gt;회원&lt;/div&gt;" style="ellipse;whiteSpace=wrap;html=1;" vertex="1" parent="1">
          <mxGeometry x="620" y="700" width="40" height="40" as="geometry" />
        </mxCell>
        <mxCell id="kBJ0tDCweXwLKOdb1bBY-43" style="edgeStyle=orthogonalEdgeStyle;rounded=0;orthogonalLoop=1;jettySize=auto;html=1;entryX=0;entryY=0.5;entryDx=0;entryDy=0;endArrow=open;endFill=0;dashed=1;" edge="1" parent="1" source="kBJ0tDCweXwLKOdb1bBY-44" target="kBJ0tDCweXwLKOdb1bBY-33">
          <mxGeometry relative="1" as="geometry" />
        </mxCell>
        <mxCell id="MtEOHC34fdI9ZBYdHWnp-1" style="edgeStyle=orthogonalEdgeStyle;rounded=0;orthogonalLoop=1;jettySize=auto;html=1;entryX=0.5;entryY=1;entryDx=0;entryDy=0;dashed=1;endArrow=open;endFill=0;" edge="1" parent="1" source="kBJ0tDCweXwLKOdb1bBY-44" target="kBJ0tDCweXwLKOdb1bBY-37">
          <mxGeometry relative="1" as="geometry" />
        </mxCell>
        <mxCell id="kBJ0tDCweXwLKOdb1bBY-44" value="나의&lt;div&gt;정보&lt;/div&gt;" style="ellipse;whiteSpace=wrap;html=1;" vertex="1" parent="1">
          <mxGeometry x="510" y="760" width="40" height="40" as="geometry" />
        </mxCell>
        <mxCell id="kBJ0tDCweXwLKOdb1bBY-45" value="use" style="html=1;verticalAlign=bottom;endArrow=block;curved=0;rounded=0;exitX=0.4;exitY=0.592;exitDx=0;exitDy=0;exitPerimeter=0;entryX=0;entryY=0;entryDx=0;entryDy=0;" edge="1" parent="1" source="kBJ0tDCweXwLKOdb1bBY-2" target="kBJ0tDCweXwLKOdb1bBY-44">
          <mxGeometry width="80" relative="1" as="geometry">
            <mxPoint x="360" y="374" as="sourcePoint" />
            <mxPoint x="470" y="370" as="targetPoint" />
            <Array as="points">
              <mxPoint x="180" y="630" />
            </Array>
          </mxGeometry>
        </mxCell>
        <mxCell id="kBJ0tDCweXwLKOdb1bBY-46" style="edgeStyle=orthogonalEdgeStyle;rounded=0;orthogonalLoop=1;jettySize=auto;html=1;entryX=0.238;entryY=0.992;entryDx=0;entryDy=0;entryPerimeter=0;dashed=1;endArrow=open;endFill=0;" edge="1" parent="1" source="kBJ0tDCweXwLKOdb1bBY-42" target="kBJ0tDCweXwLKOdb1bBY-33">
          <mxGeometry relative="1" as="geometry" />
        </mxCell>
        <mxCell id="kBJ0tDCweXwLKOdb1bBY-48" value="&amp;lt;&amp;lt;extend&amp;gt;&amp;gt;" style="edgeLabel;html=1;align=center;verticalAlign=middle;resizable=0;points=[];" vertex="1" connectable="0" parent="1">
          <mxGeometry x="585" y="610" as="geometry">
            <mxPoint x="2" y="2" as="offset" />
          </mxGeometry>
        </mxCell>
        <mxCell id="kBJ0tDCweXwLKOdb1bBY-49" value="&amp;lt;&amp;lt;extend&amp;gt;&amp;gt;" style="edgeLabel;html=1;align=center;verticalAlign=middle;resizable=0;points=[];" vertex="1" connectable="0" parent="1">
          <mxGeometry x="640" y="680" as="geometry" />
        </mxCell>
        <mxCell id="kBJ0tDCweXwLKOdb1bBY-52" value="영화랭킹" style="ellipse;whiteSpace=wrap;html=1;" vertex="1" parent="1">
          <mxGeometry x="430" y="220" width="50" height="50" as="geometry" />
        </mxCell>
        <mxCell id="kBJ0tDCweXwLKOdb1bBY-53" value="" style="endArrow=open;dashed=1;endFill=0;endSize=12;html=1;rounded=0;exitX=0.5;exitY=0;exitDx=0;exitDy=0;entryX=0.967;entryY=0.75;entryDx=0;entryDy=0;entryPerimeter=0;" edge="1" parent="1" source="kBJ0tDCweXwLKOdb1bBY-52" target="kBJ0tDCweXwLKOdb1bBY-5">
          <mxGeometry width="160" relative="1" as="geometry">
            <mxPoint x="580" y="172" as="sourcePoint" />
            <mxPoint x="432" y="90" as="targetPoint" />
          </mxGeometry>
        </mxCell>
        <mxCell id="kBJ0tDCweXwLKOdb1bBY-54" value="&amp;lt;&amp;lt;extend&amp;gt;&amp;gt;" style="edgeLabel;html=1;align=center;verticalAlign=middle;resizable=0;points=[];" vertex="1" connectable="0" parent="kBJ0tDCweXwLKOdb1bBY-53">
          <mxGeometry x="0.012" y="-4" relative="1" as="geometry">
            <mxPoint x="13" y="-5" as="offset" />
          </mxGeometry>
        </mxCell>
        <mxCell id="MtEOHC34fdI9ZBYdHWnp-2" value="&amp;lt;&amp;lt;extend&amp;gt;&amp;gt;" style="edgeLabel;html=1;align=center;verticalAlign=middle;resizable=0;points=[];" vertex="1" connectable="0" parent="1">
          <mxGeometry x="740" y="760" as="geometry">
            <mxPoint x="2" y="2" as="offset" />
          </mxGeometry>
        </mxCell>
        <mxCell id="MtEOHC34fdI9ZBYdHWnp-3" value="영화 서비스" style="ellipse;whiteSpace=wrap;html=1;" vertex="1" parent="1">
          <mxGeometry x="340" y="-70" width="140" height="70" as="geometry" />
        </mxCell>
        <mxCell id="MtEOHC34fdI9ZBYdHWnp-6" value="" style="edgeStyle=orthogonalEdgeStyle;rounded=0;orthogonalLoop=1;jettySize=auto;html=1;endArrow=block;endFill=0;entryX=0.457;entryY=1.043;entryDx=0;entryDy=0;entryPerimeter=0;exitX=0.5;exitY=0;exitDx=0;exitDy=0;" edge="1" parent="1" source="kBJ0tDCweXwLKOdb1bBY-5" target="MtEOHC34fdI9ZBYdHWnp-3">
          <mxGeometry relative="1" as="geometry">
            <mxPoint x="460" y="80" as="sourcePoint" />
            <mxPoint x="380" y="40" as="targetPoint" />
          </mxGeometry>
        </mxCell>
        <mxCell id="V1WpUh6q8uYn2AL0Wrv--2" value="로그인/로그아웃" style="ellipse;whiteSpace=wrap;html=1;" vertex="1" parent="1">
          <mxGeometry x="660" y="260" width="140" height="70" as="geometry" />
        </mxCell>
        <mxCell id="trts2MO-mq3gLTc7cfQh-1" value="" style="endArrow=open;dashed=1;endFill=0;endSize=12;html=1;rounded=0;exitX=0.5;exitY=0;exitDx=0;exitDy=0;entryX=0.5;entryY=1;entryDx=0;entryDy=0;" edge="1" parent="1" source="kBJ0tDCweXwLKOdb1bBY-31" target="V1WpUh6q8uYn2AL0Wrv--2">
          <mxGeometry width="160" relative="1" as="geometry">
            <mxPoint x="767" y="445" as="sourcePoint" />
            <mxPoint x="740" y="310" as="targetPoint" />
          </mxGeometry>
        </mxCell>
        <mxCell id="trts2MO-mq3gLTc7cfQh-2" value="&amp;lt;&amp;lt;include&amp;gt;&amp;gt;" style="edgeLabel;html=1;align=center;verticalAlign=middle;resizable=0;points=[];" vertex="1" connectable="0" parent="trts2MO-mq3gLTc7cfQh-1">
          <mxGeometry x="0.012" y="-4" relative="1" as="geometry">
            <mxPoint x="13" y="-5" as="offset" />
          </mxGeometry>
        </mxCell>
      </root>
    </mxGraphModel>
  </diagram>
  <diagram id="LWHaUCqaiVV91OnoHmnR" name="페이지-3">
    <mxGraphModel dx="1188" dy="1852" grid="1" gridSize="10" guides="1" tooltips="1" connect="1" arrows="1" fold="1" page="1" pageScale="1" pageWidth="827" pageHeight="1169" math="0" shadow="0">
      <root>
        <mxCell id="0" />
        <mxCell id="1" parent="0" />
        <mxCell id="4O0pw3ps-FjST3-bhlCC-1" value="도서 관리 시스템" style="shape=umlFrame;whiteSpace=wrap;html=1;pointerEvents=0;width=100;height=30;" vertex="1" parent="1">
          <mxGeometry x="170" y="-10" width="710" height="700" as="geometry" />
        </mxCell>
        <mxCell id="4O0pw3ps-FjST3-bhlCC-2" value="회원" style="shape=umlActor;verticalLabelPosition=bottom;verticalAlign=top;html=1;" vertex="1" parent="1">
          <mxGeometry x="90" y="40" width="30" height="60" as="geometry" />
        </mxCell>
        <mxCell id="4O0pw3ps-FjST3-bhlCC-3" value="비회원" style="shape=umlActor;verticalLabelPosition=bottom;verticalAlign=top;html=1;" vertex="1" parent="1">
          <mxGeometry x="90" y="360" width="30" height="60" as="geometry" />
        </mxCell>
        <mxCell id="4O0pw3ps-FjST3-bhlCC-4" value="사서" style="shape=umlActor;verticalLabelPosition=bottom;verticalAlign=top;html=1;" vertex="1" parent="1">
          <mxGeometry x="960" y="40" width="30" height="60" as="geometry" />
        </mxCell>
        <mxCell id="eK-yXmKVPHYJ9dRam0vn-1" value="도서조회" style="ellipse;whiteSpace=wrap;html=1;" vertex="1" parent="1">
          <mxGeometry x="230" y="30" width="140" height="70" as="geometry" />
        </mxCell>
        <mxCell id="eK-yXmKVPHYJ9dRam0vn-2" value="도서등록" style="ellipse;whiteSpace=wrap;html=1;" vertex="1" parent="1">
          <mxGeometry x="700" y="90" width="140" height="70" as="geometry" />
        </mxCell>
        <mxCell id="eK-yXmKVPHYJ9dRam0vn-3" value="도서수정" style="ellipse;whiteSpace=wrap;html=1;" vertex="1" parent="1">
          <mxGeometry x="700" y="200" width="140" height="70" as="geometry" />
        </mxCell>
        <mxCell id="eK-yXmKVPHYJ9dRam0vn-4" value="도서삭제" style="ellipse;whiteSpace=wrap;html=1;" vertex="1" parent="1">
          <mxGeometry x="700" y="310" width="140" height="70" as="geometry" />
        </mxCell>
        <mxCell id="eK-yXmKVPHYJ9dRam0vn-6" value="use" style="html=1;verticalAlign=bottom;endArrow=block;curved=0;rounded=0;entryX=0;entryY=0.5;entryDx=0;entryDy=0;" edge="1" parent="1" source="4O0pw3ps-FjST3-bhlCC-2" target="eK-yXmKVPHYJ9dRam0vn-1">
          <mxGeometry width="80" relative="1" as="geometry">
            <mxPoint x="200" y="220" as="sourcePoint" />
            <mxPoint x="280" y="220" as="targetPoint" />
          </mxGeometry>
        </mxCell>
        <mxCell id="eK-yXmKVPHYJ9dRam0vn-7" value="use" style="html=1;verticalAlign=bottom;endArrow=block;curved=0;rounded=0;exitX=0.7;exitY=0.367;exitDx=0;exitDy=0;exitPerimeter=0;entryX=0;entryY=0.5;entryDx=0;entryDy=0;" edge="1" parent="1" source="4O0pw3ps-FjST3-bhlCC-3" target="eK-yXmKVPHYJ9dRam0vn-1">
          <mxGeometry x="-0.0018" width="80" relative="1" as="geometry">
            <mxPoint x="390" y="240" as="sourcePoint" />
            <mxPoint x="470" y="240" as="targetPoint" />
            <mxPoint as="offset" />
          </mxGeometry>
        </mxCell>
        <mxCell id="eK-yXmKVPHYJ9dRam0vn-8" value="use" style="html=1;verticalAlign=bottom;endArrow=block;curved=0;rounded=0;exitX=0.467;exitY=0.217;exitDx=0;exitDy=0;exitPerimeter=0;entryX=0.986;entryY=0.6;entryDx=0;entryDy=0;entryPerimeter=0;" edge="1" parent="1" source="4O0pw3ps-FjST3-bhlCC-4" target="eK-yXmKVPHYJ9dRam0vn-1">
          <mxGeometry width="80" relative="1" as="geometry">
            <mxPoint x="390" y="260" as="sourcePoint" />
            <mxPoint x="470" y="260" as="targetPoint" />
          </mxGeometry>
        </mxCell>
        <mxCell id="eK-yXmKVPHYJ9dRam0vn-9" value="use" style="html=1;verticalAlign=bottom;endArrow=block;curved=0;rounded=0;exitX=0.533;exitY=0.4;exitDx=0;exitDy=0;exitPerimeter=0;entryX=1;entryY=0.5;entryDx=0;entryDy=0;" edge="1" parent="1" source="4O0pw3ps-FjST3-bhlCC-4" target="eK-yXmKVPHYJ9dRam0vn-2">
          <mxGeometry width="80" relative="1" as="geometry">
            <mxPoint x="390" y="260" as="sourcePoint" />
            <mxPoint x="470" y="260" as="targetPoint" />
          </mxGeometry>
        </mxCell>
        <mxCell id="eK-yXmKVPHYJ9dRam0vn-10" value="use" style="html=1;verticalAlign=bottom;endArrow=block;curved=0;rounded=0;exitX=0.5;exitY=0.5;exitDx=0;exitDy=0;exitPerimeter=0;" edge="1" parent="1" source="4O0pw3ps-FjST3-bhlCC-4" target="eK-yXmKVPHYJ9dRam0vn-3">
          <mxGeometry width="80" relative="1" as="geometry">
            <mxPoint x="390" y="260" as="sourcePoint" />
            <mxPoint x="470" y="260" as="targetPoint" />
          </mxGeometry>
        </mxCell>
        <mxCell id="eK-yXmKVPHYJ9dRam0vn-11" value="use" style="html=1;verticalAlign=bottom;endArrow=block;curved=0;rounded=0;exitX=0.5;exitY=0.5;exitDx=0;exitDy=0;exitPerimeter=0;entryX=0.979;entryY=0.3;entryDx=0;entryDy=0;entryPerimeter=0;" edge="1" parent="1" source="4O0pw3ps-FjST3-bhlCC-4" target="eK-yXmKVPHYJ9dRam0vn-4">
          <mxGeometry width="80" relative="1" as="geometry">
            <mxPoint x="390" y="260" as="sourcePoint" />
            <mxPoint x="470" y="260" as="targetPoint" />
          </mxGeometry>
        </mxCell>
        <mxCell id="eK-yXmKVPHYJ9dRam0vn-12" value="로그인" style="ellipse;whiteSpace=wrap;html=1;" vertex="1" parent="1">
          <mxGeometry x="440" y="200" width="140" height="70" as="geometry" />
        </mxCell>
        <mxCell id="eK-yXmKVPHYJ9dRam0vn-13" value="" style="endArrow=open;dashed=1;endFill=0;endSize=12;html=1;rounded=0;exitX=0;exitY=0.5;exitDx=0;exitDy=0;entryX=1;entryY=0;entryDx=0;entryDy=0;" edge="1" parent="1" source="eK-yXmKVPHYJ9dRam0vn-2" target="eK-yXmKVPHYJ9dRam0vn-12">
          <mxGeometry width="160" relative="1" as="geometry">
            <mxPoint x="350" y="260" as="sourcePoint" />
            <mxPoint x="510" y="260" as="targetPoint" />
          </mxGeometry>
        </mxCell>
        <mxCell id="eK-yXmKVPHYJ9dRam0vn-14" value="&amp;lt;&amp;lt;include&amp;gt;&amp;gt;" style="edgeLabel;html=1;align=center;verticalAlign=middle;resizable=0;points=[];" vertex="1" connectable="0" parent="eK-yXmKVPHYJ9dRam0vn-13">
          <mxGeometry x="0.012" y="-4" relative="1" as="geometry">
            <mxPoint x="13" y="-5" as="offset" />
          </mxGeometry>
        </mxCell>
        <mxCell id="eK-yXmKVPHYJ9dRam0vn-16" value="" style="endArrow=open;dashed=1;endFill=0;endSize=12;html=1;rounded=0;exitX=0;exitY=0.5;exitDx=0;exitDy=0;entryX=1.013;entryY=0.598;entryDx=0;entryDy=0;entryPerimeter=0;" edge="1" parent="1" source="eK-yXmKVPHYJ9dRam0vn-3" target="eK-yXmKVPHYJ9dRam0vn-12">
          <mxGeometry width="160" relative="1" as="geometry">
            <mxPoint x="400" y="280" as="sourcePoint" />
            <mxPoint x="560" y="280" as="targetPoint" />
          </mxGeometry>
        </mxCell>
        <mxCell id="eK-yXmKVPHYJ9dRam0vn-17" value="&amp;lt;&amp;lt;include&amp;gt;&amp;gt;" style="edgeLabel;html=1;align=center;verticalAlign=middle;resizable=0;points=[];" vertex="1" connectable="0" parent="eK-yXmKVPHYJ9dRam0vn-16">
          <mxGeometry x="0.0324" y="1" relative="1" as="geometry">
            <mxPoint as="offset" />
          </mxGeometry>
        </mxCell>
        <mxCell id="eK-yXmKVPHYJ9dRam0vn-19" value="" style="endArrow=open;dashed=1;endFill=0;endSize=12;html=1;rounded=0;exitX=0.023;exitY=0.406;exitDx=0;exitDy=0;exitPerimeter=0;entryX=1;entryY=1;entryDx=0;entryDy=0;" edge="1" parent="1" source="eK-yXmKVPHYJ9dRam0vn-4" target="eK-yXmKVPHYJ9dRam0vn-12">
          <mxGeometry width="160" relative="1" as="geometry">
            <mxPoint x="400" y="280" as="sourcePoint" />
            <mxPoint x="560" y="280" as="targetPoint" />
          </mxGeometry>
        </mxCell>
        <mxCell id="eK-yXmKVPHYJ9dRam0vn-21" value="&amp;lt;&amp;lt;include&amp;gt;&amp;gt;" style="edgeLabel;html=1;align=center;verticalAlign=middle;resizable=0;points=[];" vertex="1" connectable="0" parent="eK-yXmKVPHYJ9dRam0vn-19">
          <mxGeometry x="0.015" y="-1" relative="1" as="geometry">
            <mxPoint as="offset" />
          </mxGeometry>
        </mxCell>
        <mxCell id="eK-yXmKVPHYJ9dRam0vn-23" value="전체" style="ellipse;whiteSpace=wrap;html=1;" vertex="1" parent="1">
          <mxGeometry x="230" y="140" width="50" height="50" as="geometry" />
        </mxCell>
        <mxCell id="eK-yXmKVPHYJ9dRam0vn-24" value="키워드" style="ellipse;whiteSpace=wrap;html=1;" vertex="1" parent="1">
          <mxGeometry x="300" y="140" width="50" height="50" as="geometry" />
        </mxCell>
        <mxCell id="eK-yXmKVPHYJ9dRam0vn-26" value="" style="endArrow=open;dashed=1;endFill=0;endSize=12;html=1;rounded=0;exitX=0.5;exitY=0;exitDx=0;exitDy=0;entryX=0.227;entryY=0.938;entryDx=0;entryDy=0;entryPerimeter=0;" edge="1" parent="1" source="eK-yXmKVPHYJ9dRam0vn-23" target="eK-yXmKVPHYJ9dRam0vn-1">
          <mxGeometry width="160" relative="1" as="geometry">
            <mxPoint x="540" y="90" as="sourcePoint" />
            <mxPoint x="400" y="175" as="targetPoint" />
          </mxGeometry>
        </mxCell>
        <mxCell id="eK-yXmKVPHYJ9dRam0vn-27" value="&amp;lt;&amp;lt;extend&amp;gt;&amp;gt;" style="edgeLabel;html=1;align=center;verticalAlign=middle;resizable=0;points=[];" vertex="1" connectable="0" parent="eK-yXmKVPHYJ9dRam0vn-26">
          <mxGeometry x="0.012" y="-4" relative="1" as="geometry">
            <mxPoint x="13" y="-5" as="offset" />
          </mxGeometry>
        </mxCell>
        <mxCell id="eK-yXmKVPHYJ9dRam0vn-28" value="" style="endArrow=open;dashed=1;endFill=0;endSize=12;html=1;rounded=0;exitX=0.5;exitY=0;exitDx=0;exitDy=0;entryX=0.685;entryY=0.977;entryDx=0;entryDy=0;entryPerimeter=0;" edge="1" parent="1" source="eK-yXmKVPHYJ9dRam0vn-24" target="eK-yXmKVPHYJ9dRam0vn-1">
          <mxGeometry width="160" relative="1" as="geometry">
            <mxPoint x="440" y="164" as="sourcePoint" />
            <mxPoint x="447" y="120" as="targetPoint" />
          </mxGeometry>
        </mxCell>
        <mxCell id="eK-yXmKVPHYJ9dRam0vn-29" value="&amp;lt;&amp;lt;extend&amp;gt;&amp;gt;" style="edgeLabel;html=1;align=center;verticalAlign=middle;resizable=0;points=[];" vertex="1" connectable="0" parent="eK-yXmKVPHYJ9dRam0vn-28">
          <mxGeometry x="0.012" y="-4" relative="1" as="geometry">
            <mxPoint x="13" y="-5" as="offset" />
          </mxGeometry>
        </mxCell>
        <mxCell id="eK-yXmKVPHYJ9dRam0vn-30" value="회원가입" style="ellipse;whiteSpace=wrap;html=1;" vertex="1" parent="1">
          <mxGeometry x="230" y="390" width="140" height="70" as="geometry" />
        </mxCell>
        <mxCell id="eK-yXmKVPHYJ9dRam0vn-31" value="use" style="html=1;verticalAlign=bottom;endArrow=block;curved=0;rounded=0;exitX=0.67;exitY=0.399;exitDx=0;exitDy=0;exitPerimeter=0;entryX=0.016;entryY=0.376;entryDx=0;entryDy=0;entryPerimeter=0;" edge="1" parent="1" source="4O0pw3ps-FjST3-bhlCC-3" target="eK-yXmKVPHYJ9dRam0vn-30">
          <mxGeometry x="-0.0018" width="80" relative="1" as="geometry">
            <mxPoint x="230" y="667" as="sourcePoint" />
            <mxPoint x="349" y="350" as="targetPoint" />
            <mxPoint as="offset" />
          </mxGeometry>
        </mxCell>
        <mxCell id="eK-yXmKVPHYJ9dRam0vn-32" value="관리자" style="shape=umlActor;verticalLabelPosition=bottom;verticalAlign=top;html=1;" vertex="1" parent="1">
          <mxGeometry x="960" y="420" width="30" height="60" as="geometry" />
        </mxCell>
        <mxCell id="eK-yXmKVPHYJ9dRam0vn-33" value="회원관리" style="ellipse;whiteSpace=wrap;html=1;" vertex="1" parent="1">
          <mxGeometry x="600" y="400" width="120" height="40" as="geometry" />
        </mxCell>
        <mxCell id="eK-yXmKVPHYJ9dRam0vn-43" value="" style="edgeStyle=orthogonalEdgeStyle;rounded=0;orthogonalLoop=1;jettySize=auto;html=1;endArrow=block;endFill=0;" edge="1" parent="1" source="eK-yXmKVPHYJ9dRam0vn-34" target="eK-yXmKVPHYJ9dRam0vn-33">
          <mxGeometry relative="1" as="geometry" />
        </mxCell>
        <mxCell id="eK-yXmKVPHYJ9dRam0vn-34" value="조회" style="ellipse;whiteSpace=wrap;html=1;" vertex="1" parent="1">
          <mxGeometry x="570" y="480" width="40" height="40" as="geometry" />
        </mxCell>
        <mxCell id="eK-yXmKVPHYJ9dRam0vn-44" value="" style="edgeStyle=orthogonalEdgeStyle;rounded=0;orthogonalLoop=1;jettySize=auto;html=1;endArrow=block;endFill=0;" edge="1" parent="1" source="eK-yXmKVPHYJ9dRam0vn-36" target="eK-yXmKVPHYJ9dRam0vn-33">
          <mxGeometry relative="1" as="geometry" />
        </mxCell>
        <mxCell id="eK-yXmKVPHYJ9dRam0vn-36" value="등록" style="ellipse;whiteSpace=wrap;html=1;" vertex="1" parent="1">
          <mxGeometry x="620" y="480" width="40" height="40" as="geometry" />
        </mxCell>
        <mxCell id="eK-yXmKVPHYJ9dRam0vn-45" value="" style="edgeStyle=orthogonalEdgeStyle;rounded=0;orthogonalLoop=1;jettySize=auto;html=1;endArrow=block;endFill=0;" edge="1" parent="1" source="eK-yXmKVPHYJ9dRam0vn-37" target="eK-yXmKVPHYJ9dRam0vn-33">
          <mxGeometry relative="1" as="geometry" />
        </mxCell>
        <mxCell id="eK-yXmKVPHYJ9dRam0vn-37" value="수정" style="ellipse;whiteSpace=wrap;html=1;" vertex="1" parent="1">
          <mxGeometry x="670" y="480" width="40" height="40" as="geometry" />
        </mxCell>
        <mxCell id="eK-yXmKVPHYJ9dRam0vn-46" value="" style="edgeStyle=orthogonalEdgeStyle;rounded=0;orthogonalLoop=1;jettySize=auto;html=1;endArrow=block;endFill=0;" edge="1" parent="1" source="eK-yXmKVPHYJ9dRam0vn-38" target="eK-yXmKVPHYJ9dRam0vn-33">
          <mxGeometry relative="1" as="geometry" />
        </mxCell>
        <mxCell id="eK-yXmKVPHYJ9dRam0vn-38" value="삭제" style="ellipse;whiteSpace=wrap;html=1;" vertex="1" parent="1">
          <mxGeometry x="720" y="480" width="40" height="40" as="geometry" />
        </mxCell>
        <mxCell id="eK-yXmKVPHYJ9dRam0vn-47" value="use" style="html=1;verticalAlign=bottom;endArrow=block;curved=0;rounded=0;exitX=0.5;exitY=0.5;exitDx=0;exitDy=0;exitPerimeter=0;entryX=0.989;entryY=0.658;entryDx=0;entryDy=0;entryPerimeter=0;" edge="1" parent="1" source="eK-yXmKVPHYJ9dRam0vn-32" target="eK-yXmKVPHYJ9dRam0vn-33">
          <mxGeometry width="80" relative="1" as="geometry">
            <mxPoint x="978" y="430" as="sourcePoint" />
            <mxPoint x="840" y="691" as="targetPoint" />
          </mxGeometry>
        </mxCell>
        <mxCell id="eK-yXmKVPHYJ9dRam0vn-48" value="사서&lt;div&gt;회원&lt;/div&gt;" style="ellipse;whiteSpace=wrap;html=1;" vertex="1" parent="1">
          <mxGeometry x="600" y="580" width="40" height="40" as="geometry" />
        </mxCell>
        <mxCell id="eK-yXmKVPHYJ9dRam0vn-49" value="일반&lt;div&gt;회원&lt;/div&gt;" style="ellipse;whiteSpace=wrap;html=1;" vertex="1" parent="1">
          <mxGeometry x="540" y="580" width="40" height="40" as="geometry" />
        </mxCell>
        <mxCell id="eK-yXmKVPHYJ9dRam0vn-52" style="edgeStyle=orthogonalEdgeStyle;rounded=0;orthogonalLoop=1;jettySize=auto;html=1;entryX=0;entryY=0.5;entryDx=0;entryDy=0;endArrow=open;endFill=0;dashed=1;" edge="1" parent="1" source="eK-yXmKVPHYJ9dRam0vn-50" target="eK-yXmKVPHYJ9dRam0vn-34">
          <mxGeometry relative="1" as="geometry" />
        </mxCell>
        <mxCell id="eK-yXmKVPHYJ9dRam0vn-50" value="나의&lt;div&gt;정보&lt;/div&gt;" style="ellipse;whiteSpace=wrap;html=1;" vertex="1" parent="1">
          <mxGeometry x="450" y="480" width="40" height="40" as="geometry" />
        </mxCell>
        <mxCell id="eK-yXmKVPHYJ9dRam0vn-51" value="use" style="html=1;verticalAlign=bottom;endArrow=block;curved=0;rounded=0;exitX=0.4;exitY=0.592;exitDx=0;exitDy=0;exitPerimeter=0;entryX=0;entryY=0;entryDx=0;entryDy=0;" edge="1" parent="1" source="4O0pw3ps-FjST3-bhlCC-2" target="eK-yXmKVPHYJ9dRam0vn-50">
          <mxGeometry width="80" relative="1" as="geometry">
            <mxPoint x="300" y="254" as="sourcePoint" />
            <mxPoint x="410" y="250" as="targetPoint" />
          </mxGeometry>
        </mxCell>
        <mxCell id="eK-yXmKVPHYJ9dRam0vn-53" style="edgeStyle=orthogonalEdgeStyle;rounded=0;orthogonalLoop=1;jettySize=auto;html=1;entryX=0.238;entryY=0.992;entryDx=0;entryDy=0;entryPerimeter=0;dashed=1;endArrow=open;endFill=0;" edge="1" parent="1" source="eK-yXmKVPHYJ9dRam0vn-49" target="eK-yXmKVPHYJ9dRam0vn-34">
          <mxGeometry relative="1" as="geometry" />
        </mxCell>
        <mxCell id="eK-yXmKVPHYJ9dRam0vn-54" style="edgeStyle=orthogonalEdgeStyle;rounded=0;orthogonalLoop=1;jettySize=auto;html=1;entryX=0.75;entryY=1;entryDx=0;entryDy=0;entryPerimeter=0;dashed=1;endArrow=open;endFill=0;" edge="1" parent="1" source="eK-yXmKVPHYJ9dRam0vn-48" target="eK-yXmKVPHYJ9dRam0vn-34">
          <mxGeometry relative="1" as="geometry" />
        </mxCell>
        <mxCell id="eK-yXmKVPHYJ9dRam0vn-55" value="&amp;lt;&amp;lt;extend&amp;gt;&amp;gt;" style="edgeLabel;html=1;align=center;verticalAlign=middle;resizable=0;points=[];" vertex="1" connectable="0" parent="1">
          <mxGeometry x="525" y="490" as="geometry" />
        </mxCell>
        <mxCell id="eK-yXmKVPHYJ9dRam0vn-56" value="&amp;lt;&amp;lt;extend&amp;gt;&amp;gt;" style="edgeLabel;html=1;align=center;verticalAlign=middle;resizable=0;points=[];" vertex="1" connectable="0" parent="1">
          <mxGeometry x="560" y="560" as="geometry" />
        </mxCell>
        <mxCell id="eK-yXmKVPHYJ9dRam0vn-57" value="&amp;lt;&amp;lt;extend&amp;gt;&amp;gt;" style="edgeLabel;html=1;align=center;verticalAlign=middle;resizable=0;points=[];" vertex="1" connectable="0" parent="1">
          <mxGeometry x="640" y="560" as="geometry">
            <mxPoint x="-22" y="11" as="offset" />
          </mxGeometry>
        </mxCell>
        <mxCell id="eK-yXmKVPHYJ9dRam0vn-58" value="use" style="html=1;verticalAlign=bottom;endArrow=block;curved=0;rounded=0;exitX=0.5;exitY=0.5;exitDx=0;exitDy=0;exitPerimeter=0;entryX=0.696;entryY=0.033;entryDx=0;entryDy=0;entryPerimeter=0;" edge="1" parent="1" source="4O0pw3ps-FjST3-bhlCC-4" target="eK-yXmKVPHYJ9dRam0vn-50">
          <mxGeometry width="80" relative="1" as="geometry">
            <mxPoint x="1118" y="220" as="sourcePoint" />
            <mxPoint x="980" y="481" as="targetPoint" />
            <Array as="points">
              <mxPoint x="710" y="10" />
            </Array>
          </mxGeometry>
        </mxCell>
      </root>
    </mxGraphModel>
  </diagram>
  <diagram id="2CCG6GKKaq9Vs0nZykU5" name="1">
    <mxGraphModel dx="546" dy="962" grid="1" gridSize="10" guides="1" tooltips="1" connect="1" arrows="1" fold="1" page="1" pageScale="1" pageWidth="827" pageHeight="1169" math="0" shadow="0">
      <root>
        <mxCell id="0" />
        <mxCell id="1" parent="0" />
        <mxCell id="3LhUpIC0L1p0vdOTDQfX-1" value="frame" style="shape=umlFrame;whiteSpace=wrap;html=1;pointerEvents=0;width=110;height=30;" vertex="1" parent="1">
          <mxGeometry x="200" y="40" width="520" height="770" as="geometry" />
        </mxCell>
        <mxCell id="3LhUpIC0L1p0vdOTDQfX-2" value="회원" style="shape=umlActor;verticalLabelPosition=bottom;verticalAlign=top;html=1;" vertex="1" parent="1">
          <mxGeometry x="120" y="200" width="30" height="60" as="geometry" />
        </mxCell>
        <mxCell id="3LhUpIC0L1p0vdOTDQfX-3" value="비회원" style="shape=umlActor;verticalLabelPosition=bottom;verticalAlign=top;html=1;" vertex="1" parent="1">
          <mxGeometry x="120" y="460" width="30" height="60" as="geometry" />
        </mxCell>
        <mxCell id="xoViHgaNBFlQdCwWuiq3-21" value="" style="edgeStyle=orthogonalEdgeStyle;rounded=0;orthogonalLoop=1;jettySize=auto;html=1;endArrow=block;endFill=0;" edge="1" parent="1" source="3LhUpIC0L1p0vdOTDQfX-8" target="xoViHgaNBFlQdCwWuiq3-5">
          <mxGeometry relative="1" as="geometry" />
        </mxCell>
        <mxCell id="3LhUpIC0L1p0vdOTDQfX-8" value="결제" style="ellipse;whiteSpace=wrap;html=1;" vertex="1" parent="1">
          <mxGeometry x="470" y="635" width="90" height="50" as="geometry" />
        </mxCell>
        <mxCell id="3LhUpIC0L1p0vdOTDQfX-9" value="카드" style="ellipse;whiteSpace=wrap;html=1;" vertex="1" parent="1">
          <mxGeometry x="455" y="720" width="40" height="40" as="geometry" />
        </mxCell>
        <mxCell id="3LhUpIC0L1p0vdOTDQfX-10" value="무통장" style="ellipse;whiteSpace=wrap;html=1;" vertex="1" parent="1">
          <mxGeometry x="515" y="720" width="40" height="40" as="geometry" />
        </mxCell>
        <mxCell id="3LhUpIC0L1p0vdOTDQfX-11" value="결제 취소" style="ellipse;whiteSpace=wrap;html=1;" vertex="1" parent="1">
          <mxGeometry x="600" y="630" width="90" height="50" as="geometry" />
        </mxCell>
        <mxCell id="3LhUpIC0L1p0vdOTDQfX-12" value="카드&lt;div&gt;취소&lt;/div&gt;" style="ellipse;whiteSpace=wrap;html=1;" vertex="1" parent="1">
          <mxGeometry x="590" y="720" width="40" height="40" as="geometry" />
        </mxCell>
        <mxCell id="3LhUpIC0L1p0vdOTDQfX-13" value="무통장&lt;div&gt;취소&lt;/div&gt;" style="ellipse;whiteSpace=wrap;html=1;" vertex="1" parent="1">
          <mxGeometry x="670" y="720" width="40" height="40" as="geometry" />
        </mxCell>
        <mxCell id="xoViHgaNBFlQdCwWuiq3-1" value="예매 서비스" style="ellipse;whiteSpace=wrap;html=1;" vertex="1" parent="1">
          <mxGeometry x="455" y="440" width="120" height="40" as="geometry" />
        </mxCell>
        <mxCell id="xoViHgaNBFlQdCwWuiq3-2" value="" style="edgeStyle=orthogonalEdgeStyle;rounded=0;orthogonalLoop=1;jettySize=auto;html=1;endArrow=block;endFill=0;" edge="1" parent="1" source="xoViHgaNBFlQdCwWuiq3-3" target="xoViHgaNBFlQdCwWuiq3-1">
          <mxGeometry relative="1" as="geometry" />
        </mxCell>
        <mxCell id="xoViHgaNBFlQdCwWuiq3-3" value="예매&lt;div&gt;조회&lt;/div&gt;" style="ellipse;whiteSpace=wrap;html=1;" vertex="1" parent="1">
          <mxGeometry x="425" y="550" width="40" height="40" as="geometry" />
        </mxCell>
        <mxCell id="xoViHgaNBFlQdCwWuiq3-4" value="" style="edgeStyle=orthogonalEdgeStyle;rounded=0;orthogonalLoop=1;jettySize=auto;html=1;endArrow=block;endFill=0;" edge="1" parent="1" source="xoViHgaNBFlQdCwWuiq3-5" target="xoViHgaNBFlQdCwWuiq3-1">
          <mxGeometry relative="1" as="geometry" />
        </mxCell>
        <mxCell id="xoViHgaNBFlQdCwWuiq3-5" value="예매" style="ellipse;whiteSpace=wrap;html=1;" vertex="1" parent="1">
          <mxGeometry x="495" y="550" width="40" height="40" as="geometry" />
        </mxCell>
        <mxCell id="xoViHgaNBFlQdCwWuiq3-6" value="" style="edgeStyle=orthogonalEdgeStyle;rounded=0;orthogonalLoop=1;jettySize=auto;html=1;endArrow=block;endFill=0;" edge="1" parent="1" source="xoViHgaNBFlQdCwWuiq3-7" target="xoViHgaNBFlQdCwWuiq3-1">
          <mxGeometry relative="1" as="geometry">
            <Array as="points">
              <mxPoint x="645" y="510" />
              <mxPoint x="515" y="510" />
            </Array>
          </mxGeometry>
        </mxCell>
        <mxCell id="xoViHgaNBFlQdCwWuiq3-7" value="예매&lt;div&gt;취소&lt;/div&gt;" style="ellipse;whiteSpace=wrap;html=1;" vertex="1" parent="1">
          <mxGeometry x="625" y="550" width="40" height="40" as="geometry" />
        </mxCell>
        <mxCell id="xoViHgaNBFlQdCwWuiq3-10" value="비회원" style="ellipse;whiteSpace=wrap;html=1;" vertex="1" parent="1">
          <mxGeometry x="395" y="640" width="40" height="40" as="geometry" />
        </mxCell>
        <mxCell id="xoViHgaNBFlQdCwWuiq3-11" value="일반&lt;div&gt;회원&lt;/div&gt;" style="ellipse;whiteSpace=wrap;html=1;" vertex="1" parent="1">
          <mxGeometry x="350" y="640" width="40" height="40" as="geometry" />
        </mxCell>
        <mxCell id="xoViHgaNBFlQdCwWuiq3-12" style="edgeStyle=orthogonalEdgeStyle;rounded=0;orthogonalLoop=1;jettySize=auto;html=1;entryX=0.238;entryY=0.992;entryDx=0;entryDy=0;entryPerimeter=0;dashed=1;endArrow=open;endFill=0;" edge="1" parent="1" source="xoViHgaNBFlQdCwWuiq3-11" target="xoViHgaNBFlQdCwWuiq3-3">
          <mxGeometry relative="1" as="geometry">
            <Array as="points">
              <mxPoint x="370" y="590" />
            </Array>
          </mxGeometry>
        </mxCell>
        <mxCell id="xoViHgaNBFlQdCwWuiq3-13" style="edgeStyle=orthogonalEdgeStyle;rounded=0;orthogonalLoop=1;jettySize=auto;html=1;entryX=0.75;entryY=1;entryDx=0;entryDy=0;entryPerimeter=0;dashed=1;endArrow=open;endFill=0;" edge="1" parent="1" source="xoViHgaNBFlQdCwWuiq3-10" target="xoViHgaNBFlQdCwWuiq3-3">
          <mxGeometry relative="1" as="geometry" />
        </mxCell>
        <mxCell id="xoViHgaNBFlQdCwWuiq3-14" value="&amp;lt;&amp;lt;extend&amp;gt;&amp;gt;" style="edgeLabel;html=1;align=center;verticalAlign=middle;resizable=0;points=[];" vertex="1" connectable="0" parent="1">
          <mxGeometry x="380" y="560" as="geometry" />
        </mxCell>
        <mxCell id="xoViHgaNBFlQdCwWuiq3-15" value="&amp;lt;&amp;lt;extend&amp;gt;&amp;gt;" style="edgeLabel;html=1;align=center;verticalAlign=middle;resizable=0;points=[];" vertex="1" connectable="0" parent="1">
          <mxGeometry x="370" y="610" as="geometry" />
        </mxCell>
        <mxCell id="xoViHgaNBFlQdCwWuiq3-16" value="&amp;lt;&amp;lt;extend&amp;gt;&amp;gt;" style="edgeLabel;html=1;align=center;verticalAlign=middle;resizable=0;points=[];" vertex="1" connectable="0" parent="1">
          <mxGeometry x="435" y="610" as="geometry">
            <mxPoint x="-22" y="11" as="offset" />
          </mxGeometry>
        </mxCell>
        <mxCell id="xoViHgaNBFlQdCwWuiq3-22" value="" style="edgeStyle=orthogonalEdgeStyle;rounded=0;orthogonalLoop=1;jettySize=auto;html=1;endArrow=block;endFill=0;entryX=0.5;entryY=1;entryDx=0;entryDy=0;exitX=0.5;exitY=0;exitDx=0;exitDy=0;" edge="1" parent="1" source="3LhUpIC0L1p0vdOTDQfX-11" target="xoViHgaNBFlQdCwWuiq3-7">
          <mxGeometry relative="1" as="geometry">
            <mxPoint x="640" y="645" as="sourcePoint" />
            <mxPoint x="640" y="600" as="targetPoint" />
          </mxGeometry>
        </mxCell>
        <mxCell id="xoViHgaNBFlQdCwWuiq3-23" value="" style="edgeStyle=orthogonalEdgeStyle;rounded=0;orthogonalLoop=1;jettySize=auto;html=1;endArrow=block;endFill=0;entryX=0.222;entryY=0.9;entryDx=0;entryDy=0;entryPerimeter=0;exitX=0.5;exitY=0;exitDx=0;exitDy=0;" edge="1" parent="1" source="3LhUpIC0L1p0vdOTDQfX-9" target="3LhUpIC0L1p0vdOTDQfX-8">
          <mxGeometry relative="1" as="geometry">
            <mxPoint x="480" y="855" as="sourcePoint" />
            <mxPoint x="480" y="810" as="targetPoint" />
          </mxGeometry>
        </mxCell>
        <mxCell id="xoViHgaNBFlQdCwWuiq3-24" value="" style="edgeStyle=orthogonalEdgeStyle;rounded=0;orthogonalLoop=1;jettySize=auto;html=1;endArrow=block;endFill=0;entryX=0.656;entryY=0.98;entryDx=0;entryDy=0;entryPerimeter=0;exitX=0.5;exitY=0;exitDx=0;exitDy=0;" edge="1" parent="1" source="3LhUpIC0L1p0vdOTDQfX-10" target="3LhUpIC0L1p0vdOTDQfX-8">
          <mxGeometry relative="1" as="geometry">
            <mxPoint x="510" y="885" as="sourcePoint" />
            <mxPoint x="510" y="840" as="targetPoint" />
          </mxGeometry>
        </mxCell>
        <mxCell id="xoViHgaNBFlQdCwWuiq3-25" value="" style="edgeStyle=orthogonalEdgeStyle;rounded=0;orthogonalLoop=1;jettySize=auto;html=1;endArrow=block;endFill=0;entryX=0;entryY=1;entryDx=0;entryDy=0;exitX=0.5;exitY=0;exitDx=0;exitDy=0;" edge="1" parent="1" source="3LhUpIC0L1p0vdOTDQfX-12" target="3LhUpIC0L1p0vdOTDQfX-11">
          <mxGeometry relative="1" as="geometry">
            <mxPoint x="580" y="845" as="sourcePoint" />
            <mxPoint x="580" y="800" as="targetPoint" />
          </mxGeometry>
        </mxCell>
        <mxCell id="xoViHgaNBFlQdCwWuiq3-26" value="" style="edgeStyle=orthogonalEdgeStyle;rounded=0;orthogonalLoop=1;jettySize=auto;html=1;endArrow=block;endFill=0;entryX=0.789;entryY=0.92;entryDx=0;entryDy=0;entryPerimeter=0;exitX=0.5;exitY=0;exitDx=0;exitDy=0;" edge="1" parent="1" source="3LhUpIC0L1p0vdOTDQfX-13" target="3LhUpIC0L1p0vdOTDQfX-11">
          <mxGeometry relative="1" as="geometry">
            <mxPoint x="580" y="885" as="sourcePoint" />
            <mxPoint x="580" y="840" as="targetPoint" />
          </mxGeometry>
        </mxCell>
        <mxCell id="HX2vlC4s8KDI5WFyL_LR-1" value="예매 관리" style="ellipse;whiteSpace=wrap;html=1;" vertex="1" parent="1">
          <mxGeometry x="460" y="300" width="110" height="50" as="geometry" />
        </mxCell>
      </root>
    </mxGraphModel>
  </diagram>
  <diagram id="RVLXPTRis5h2WUkqOm7w" name="페이지-5">
    <mxGraphModel dx="705" dy="962" grid="1" gridSize="10" guides="1" tooltips="1" connect="1" arrows="1" fold="1" page="1" pageScale="1" pageWidth="827" pageHeight="1169" math="0" shadow="0">
      <root>
        <mxCell id="0" />
        <mxCell id="1" parent="0" />
        <mxCell id="2nGRQFnEJMKm2sC9qPeA-1" value="영화 예매 프로그램" style="shape=umlFrame;whiteSpace=wrap;html=1;pointerEvents=0;width=110;height=30;" vertex="1" parent="1">
          <mxGeometry x="270" y="30" width="1020" height="1260" as="geometry" />
        </mxCell>
        <mxCell id="2nGRQFnEJMKm2sC9qPeA-2" value="회원" style="shape=umlActor;verticalLabelPosition=bottom;verticalAlign=top;html=1;" vertex="1" parent="1">
          <mxGeometry x="70" y="490" width="30" height="60" as="geometry" />
        </mxCell>
        <mxCell id="2nGRQFnEJMKm2sC9qPeA-3" value="비회원" style="shape=umlActor;verticalLabelPosition=bottom;verticalAlign=top;html=1;" vertex="1" parent="1">
          <mxGeometry x="70" y="810" width="30" height="60" as="geometry" />
        </mxCell>
        <mxCell id="2nGRQFnEJMKm2sC9qPeA-4" value="영화조회" style="ellipse;whiteSpace=wrap;html=1;" vertex="1" parent="1">
          <mxGeometry x="430" y="350" width="60" height="60" as="geometry" />
        </mxCell>
        <mxCell id="2nGRQFnEJMKm2sC9qPeA-5" value="use" style="html=1;verticalAlign=bottom;endArrow=block;curved=0;rounded=0;entryX=0.066;entryY=0.792;entryDx=0;entryDy=0;entryPerimeter=0;" edge="1" parent="1" source="2nGRQFnEJMKm2sC9qPeA-2" target="2nGRQFnEJMKm2sC9qPeA-33">
          <mxGeometry width="80" relative="1" as="geometry">
            <mxPoint x="320" y="650" as="sourcePoint" />
            <mxPoint x="410" y="460" as="targetPoint" />
          </mxGeometry>
        </mxCell>
        <mxCell id="2nGRQFnEJMKm2sC9qPeA-6" value="" style="ellipse;whiteSpace=wrap;html=1;" vertex="1" parent="1">
          <mxGeometry x="330" y="530" width="50" height="50" as="geometry" />
        </mxCell>
        <mxCell id="2nGRQFnEJMKm2sC9qPeA-7" value="키워드" style="ellipse;whiteSpace=wrap;html=1;" vertex="1" parent="1">
          <mxGeometry x="410" y="530" width="50" height="50" as="geometry" />
        </mxCell>
        <mxCell id="2nGRQFnEJMKm2sC9qPeA-8" value="" style="endArrow=open;dashed=1;endFill=0;endSize=12;html=1;rounded=0;exitX=0.5;exitY=0;exitDx=0;exitDy=0;entryX=0.35;entryY=0.983;entryDx=0;entryDy=0;entryPerimeter=0;" edge="1" parent="1" source="2nGRQFnEJMKm2sC9qPeA-6" target="2nGRQFnEJMKm2sC9qPeA-4">
          <mxGeometry width="160" relative="1" as="geometry">
            <mxPoint x="650" y="430" as="sourcePoint" />
            <mxPoint x="390" y="410" as="targetPoint" />
          </mxGeometry>
        </mxCell>
        <mxCell id="2nGRQFnEJMKm2sC9qPeA-9" value="&amp;lt;&amp;lt;extend&amp;gt;&amp;gt;" style="edgeLabel;html=1;align=center;verticalAlign=middle;resizable=0;points=[];" vertex="1" connectable="0" parent="2nGRQFnEJMKm2sC9qPeA-8">
          <mxGeometry x="0.012" y="-4" relative="1" as="geometry">
            <mxPoint x="13" y="-5" as="offset" />
          </mxGeometry>
        </mxCell>
        <mxCell id="2nGRQFnEJMKm2sC9qPeA-10" value="" style="endArrow=open;dashed=1;endFill=0;endSize=12;html=1;rounded=0;exitX=0.5;exitY=0;exitDx=0;exitDy=0;entryX=0.683;entryY=0.95;entryDx=0;entryDy=0;entryPerimeter=0;" edge="1" parent="1" source="2nGRQFnEJMKm2sC9qPeA-7" target="2nGRQFnEJMKm2sC9qPeA-4">
          <mxGeometry width="160" relative="1" as="geometry">
            <mxPoint x="550" y="504" as="sourcePoint" />
            <mxPoint x="450" y="410" as="targetPoint" />
          </mxGeometry>
        </mxCell>
        <mxCell id="2nGRQFnEJMKm2sC9qPeA-11" value="&amp;lt;&amp;lt;extend&amp;gt;&amp;gt;" style="edgeLabel;html=1;align=center;verticalAlign=middle;resizable=0;points=[];" vertex="1" connectable="0" parent="2nGRQFnEJMKm2sC9qPeA-10">
          <mxGeometry x="0.012" y="-4" relative="1" as="geometry">
            <mxPoint x="13" y="-5" as="offset" />
          </mxGeometry>
        </mxCell>
        <mxCell id="2nGRQFnEJMKm2sC9qPeA-12" value="회원가입" style="ellipse;whiteSpace=wrap;html=1;" vertex="1" parent="1">
          <mxGeometry x="350" y="820" width="140" height="70" as="geometry" />
        </mxCell>
        <mxCell id="2nGRQFnEJMKm2sC9qPeA-13" value="회원관리" style="ellipse;whiteSpace=wrap;html=1;" vertex="1" parent="1">
          <mxGeometry x="720" y="830" width="120" height="40" as="geometry" />
        </mxCell>
        <mxCell id="2nGRQFnEJMKm2sC9qPeA-14" value="" style="edgeStyle=orthogonalEdgeStyle;rounded=0;orthogonalLoop=1;jettySize=auto;html=1;endArrow=block;endFill=0;" edge="1" parent="1" source="2nGRQFnEJMKm2sC9qPeA-15" target="2nGRQFnEJMKm2sC9qPeA-13">
          <mxGeometry relative="1" as="geometry" />
        </mxCell>
        <mxCell id="2nGRQFnEJMKm2sC9qPeA-15" value="조회" style="ellipse;whiteSpace=wrap;html=1;" vertex="1" parent="1">
          <mxGeometry x="690" y="910" width="40" height="40" as="geometry" />
        </mxCell>
        <mxCell id="2nGRQFnEJMKm2sC9qPeA-16" value="" style="edgeStyle=orthogonalEdgeStyle;rounded=0;orthogonalLoop=1;jettySize=auto;html=1;endArrow=block;endFill=0;" edge="1" parent="1" source="2nGRQFnEJMKm2sC9qPeA-17" target="2nGRQFnEJMKm2sC9qPeA-13">
          <mxGeometry relative="1" as="geometry" />
        </mxCell>
        <mxCell id="2nGRQFnEJMKm2sC9qPeA-17" value="등록" style="ellipse;whiteSpace=wrap;html=1;" vertex="1" parent="1">
          <mxGeometry x="740" y="910" width="40" height="40" as="geometry" />
        </mxCell>
        <mxCell id="2nGRQFnEJMKm2sC9qPeA-18" value="" style="edgeStyle=orthogonalEdgeStyle;rounded=0;orthogonalLoop=1;jettySize=auto;html=1;endArrow=block;endFill=0;" edge="1" parent="1" source="2nGRQFnEJMKm2sC9qPeA-19" target="2nGRQFnEJMKm2sC9qPeA-13">
          <mxGeometry relative="1" as="geometry" />
        </mxCell>
        <mxCell id="2nGRQFnEJMKm2sC9qPeA-19" value="수정" style="ellipse;whiteSpace=wrap;html=1;" vertex="1" parent="1">
          <mxGeometry x="790" y="910" width="40" height="40" as="geometry" />
        </mxCell>
        <mxCell id="2nGRQFnEJMKm2sC9qPeA-20" value="" style="edgeStyle=orthogonalEdgeStyle;rounded=0;orthogonalLoop=1;jettySize=auto;html=1;endArrow=block;endFill=0;" edge="1" parent="1" source="2nGRQFnEJMKm2sC9qPeA-21" target="2nGRQFnEJMKm2sC9qPeA-13">
          <mxGeometry relative="1" as="geometry" />
        </mxCell>
        <mxCell id="2nGRQFnEJMKm2sC9qPeA-21" value="삭제" style="ellipse;whiteSpace=wrap;html=1;" vertex="1" parent="1">
          <mxGeometry x="840" y="910" width="40" height="40" as="geometry" />
        </mxCell>
        <mxCell id="2nGRQFnEJMKm2sC9qPeA-22" value="일반&lt;div&gt;회원&lt;/div&gt;" style="ellipse;whiteSpace=wrap;html=1;" vertex="1" parent="1">
          <mxGeometry x="680" y="1010" width="40" height="40" as="geometry" />
        </mxCell>
        <mxCell id="2nGRQFnEJMKm2sC9qPeA-23" style="edgeStyle=orthogonalEdgeStyle;rounded=0;orthogonalLoop=1;jettySize=auto;html=1;entryX=0;entryY=0.5;entryDx=0;entryDy=0;endArrow=open;endFill=0;dashed=1;" edge="1" parent="1" source="2nGRQFnEJMKm2sC9qPeA-25" target="2nGRQFnEJMKm2sC9qPeA-15">
          <mxGeometry relative="1" as="geometry" />
        </mxCell>
        <mxCell id="2nGRQFnEJMKm2sC9qPeA-24" style="edgeStyle=orthogonalEdgeStyle;rounded=0;orthogonalLoop=1;jettySize=auto;html=1;entryX=0.5;entryY=1;entryDx=0;entryDy=0;dashed=1;endArrow=open;endFill=0;" edge="1" parent="1" source="2nGRQFnEJMKm2sC9qPeA-25" target="2nGRQFnEJMKm2sC9qPeA-19">
          <mxGeometry relative="1" as="geometry" />
        </mxCell>
        <mxCell id="2nGRQFnEJMKm2sC9qPeA-25" value="나의&lt;div&gt;정보&lt;/div&gt;" style="ellipse;whiteSpace=wrap;html=1;" vertex="1" parent="1">
          <mxGeometry x="570" y="1070" width="40" height="40" as="geometry" />
        </mxCell>
        <mxCell id="2nGRQFnEJMKm2sC9qPeA-26" style="edgeStyle=orthogonalEdgeStyle;rounded=0;orthogonalLoop=1;jettySize=auto;html=1;entryX=0.238;entryY=0.992;entryDx=0;entryDy=0;entryPerimeter=0;dashed=1;endArrow=open;endFill=0;" edge="1" parent="1" source="2nGRQFnEJMKm2sC9qPeA-22" target="2nGRQFnEJMKm2sC9qPeA-15">
          <mxGeometry relative="1" as="geometry" />
        </mxCell>
        <mxCell id="2nGRQFnEJMKm2sC9qPeA-27" value="&amp;lt;&amp;lt;extend&amp;gt;&amp;gt;" style="edgeLabel;html=1;align=center;verticalAlign=middle;resizable=0;points=[];" vertex="1" connectable="0" parent="1">
          <mxGeometry x="645" y="920" as="geometry">
            <mxPoint x="2" y="2" as="offset" />
          </mxGeometry>
        </mxCell>
        <mxCell id="2nGRQFnEJMKm2sC9qPeA-28" value="&amp;lt;&amp;lt;extend&amp;gt;&amp;gt;" style="edgeLabel;html=1;align=center;verticalAlign=middle;resizable=0;points=[];" vertex="1" connectable="0" parent="1">
          <mxGeometry x="700" y="990" as="geometry" />
        </mxCell>
        <mxCell id="2nGRQFnEJMKm2sC9qPeA-29" value="영화랭킹" style="ellipse;whiteSpace=wrap;html=1;" vertex="1" parent="1">
          <mxGeometry x="490" y="530" width="50" height="50" as="geometry" />
        </mxCell>
        <mxCell id="2nGRQFnEJMKm2sC9qPeA-30" value="" style="endArrow=open;dashed=1;endFill=0;endSize=12;html=1;rounded=0;exitX=0.5;exitY=0;exitDx=0;exitDy=0;entryX=0.967;entryY=0.75;entryDx=0;entryDy=0;entryPerimeter=0;" edge="1" parent="1" source="2nGRQFnEJMKm2sC9qPeA-29" target="2nGRQFnEJMKm2sC9qPeA-4">
          <mxGeometry width="160" relative="1" as="geometry">
            <mxPoint x="640" y="482" as="sourcePoint" />
            <mxPoint x="492" y="400" as="targetPoint" />
          </mxGeometry>
        </mxCell>
        <mxCell id="2nGRQFnEJMKm2sC9qPeA-31" value="&amp;lt;&amp;lt;extend&amp;gt;&amp;gt;" style="edgeLabel;html=1;align=center;verticalAlign=middle;resizable=0;points=[];" vertex="1" connectable="0" parent="2nGRQFnEJMKm2sC9qPeA-30">
          <mxGeometry x="0.012" y="-4" relative="1" as="geometry">
            <mxPoint x="13" y="-5" as="offset" />
          </mxGeometry>
        </mxCell>
        <mxCell id="2nGRQFnEJMKm2sC9qPeA-32" value="&amp;lt;&amp;lt;extend&amp;gt;&amp;gt;" style="edgeLabel;html=1;align=center;verticalAlign=middle;resizable=0;points=[];" vertex="1" connectable="0" parent="1">
          <mxGeometry x="800" y="1070" as="geometry">
            <mxPoint x="2" y="2" as="offset" />
          </mxGeometry>
        </mxCell>
        <mxCell id="2nGRQFnEJMKm2sC9qPeA-33" value="영화 서비스" style="ellipse;whiteSpace=wrap;html=1;" vertex="1" parent="1">
          <mxGeometry x="400" y="240" width="140" height="70" as="geometry" />
        </mxCell>
        <mxCell id="2nGRQFnEJMKm2sC9qPeA-34" value="" style="edgeStyle=orthogonalEdgeStyle;rounded=0;orthogonalLoop=1;jettySize=auto;html=1;endArrow=block;endFill=0;entryX=0.457;entryY=1.043;entryDx=0;entryDy=0;entryPerimeter=0;exitX=0.5;exitY=0;exitDx=0;exitDy=0;" edge="1" parent="1" source="2nGRQFnEJMKm2sC9qPeA-4" target="2nGRQFnEJMKm2sC9qPeA-33">
          <mxGeometry relative="1" as="geometry">
            <mxPoint x="520" y="390" as="sourcePoint" />
            <mxPoint x="440" y="350" as="targetPoint" />
          </mxGeometry>
        </mxCell>
        <mxCell id="2nGRQFnEJMKm2sC9qPeA-35" value="로그인" style="ellipse;whiteSpace=wrap;html=1;" vertex="1" parent="1">
          <mxGeometry x="710" y="600" width="140" height="70" as="geometry" />
        </mxCell>
        <mxCell id="2nGRQFnEJMKm2sC9qPeA-36" value="" style="endArrow=open;dashed=1;endFill=0;endSize=12;html=1;rounded=0;exitX=0.5;exitY=0;exitDx=0;exitDy=0;entryX=0.5;entryY=1;entryDx=0;entryDy=0;" edge="1" parent="1" source="2nGRQFnEJMKm2sC9qPeA-13" target="2nGRQFnEJMKm2sC9qPeA-35">
          <mxGeometry width="160" relative="1" as="geometry">
            <mxPoint x="827" y="755" as="sourcePoint" />
            <mxPoint x="800" y="620" as="targetPoint" />
          </mxGeometry>
        </mxCell>
        <mxCell id="2nGRQFnEJMKm2sC9qPeA-37" value="&amp;lt;&amp;lt;include&amp;gt;&amp;gt;" style="edgeLabel;html=1;align=center;verticalAlign=middle;resizable=0;points=[];" vertex="1" connectable="0" parent="2nGRQFnEJMKm2sC9qPeA-36">
          <mxGeometry x="0.012" y="-4" relative="1" as="geometry">
            <mxPoint x="13" y="-5" as="offset" />
          </mxGeometry>
        </mxCell>
        <mxCell id="D5-59caB8ugd7OCydNPS-1" value="" style="edgeStyle=orthogonalEdgeStyle;rounded=0;orthogonalLoop=1;jettySize=auto;html=1;endArrow=block;endFill=0;" edge="1" parent="1" source="D5-59caB8ugd7OCydNPS-2" target="D5-59caB8ugd7OCydNPS-12">
          <mxGeometry relative="1" as="geometry" />
        </mxCell>
        <mxCell id="D5-59caB8ugd7OCydNPS-2" value="결제" style="ellipse;whiteSpace=wrap;html=1;" vertex="1" parent="1">
          <mxGeometry x="925" y="380" width="90" height="50" as="geometry" />
        </mxCell>
        <mxCell id="D5-59caB8ugd7OCydNPS-3" value="카드" style="ellipse;whiteSpace=wrap;html=1;" vertex="1" parent="1">
          <mxGeometry x="895" y="470" width="40" height="40" as="geometry" />
        </mxCell>
        <mxCell id="D5-59caB8ugd7OCydNPS-4" value="무통장" style="ellipse;whiteSpace=wrap;html=1;" vertex="1" parent="1">
          <mxGeometry x="955" y="470" width="40" height="40" as="geometry" />
        </mxCell>
        <mxCell id="D5-59caB8ugd7OCydNPS-5" value="결제 취소" style="ellipse;whiteSpace=wrap;html=1;" vertex="1" parent="1">
          <mxGeometry x="770" y="380" width="90" height="50" as="geometry" />
        </mxCell>
        <mxCell id="D5-59caB8ugd7OCydNPS-6" value="카드&lt;div&gt;취소&lt;/div&gt;" style="ellipse;whiteSpace=wrap;html=1;" vertex="1" parent="1">
          <mxGeometry x="760" y="470" width="40" height="40" as="geometry" />
        </mxCell>
        <mxCell id="D5-59caB8ugd7OCydNPS-7" value="무통장&lt;div&gt;취소&lt;/div&gt;" style="ellipse;whiteSpace=wrap;html=1;" vertex="1" parent="1">
          <mxGeometry x="840" y="470" width="40" height="40" as="geometry" />
        </mxCell>
        <mxCell id="D5-59caB8ugd7OCydNPS-8" value="예매 서비스" style="ellipse;whiteSpace=wrap;html=1;" vertex="1" parent="1">
          <mxGeometry x="895" y="190" width="120" height="40" as="geometry" />
        </mxCell>
        <mxCell id="D5-59caB8ugd7OCydNPS-9" value="" style="edgeStyle=orthogonalEdgeStyle;rounded=0;orthogonalLoop=1;jettySize=auto;html=1;endArrow=block;endFill=0;" edge="1" parent="1" source="D5-59caB8ugd7OCydNPS-10" target="D5-59caB8ugd7OCydNPS-8">
          <mxGeometry relative="1" as="geometry" />
        </mxCell>
        <mxCell id="D5-59caB8ugd7OCydNPS-10" value="예매&lt;div&gt;취소&lt;/div&gt;" style="ellipse;whiteSpace=wrap;html=1;" vertex="1" parent="1">
          <mxGeometry x="865" y="300" width="40" height="40" as="geometry" />
        </mxCell>
        <mxCell id="D5-59caB8ugd7OCydNPS-11" value="" style="edgeStyle=orthogonalEdgeStyle;rounded=0;orthogonalLoop=1;jettySize=auto;html=1;endArrow=block;endFill=0;" edge="1" parent="1" source="D5-59caB8ugd7OCydNPS-12" target="D5-59caB8ugd7OCydNPS-8">
          <mxGeometry relative="1" as="geometry" />
        </mxCell>
        <mxCell id="D5-59caB8ugd7OCydNPS-12" value="예매" style="ellipse;whiteSpace=wrap;html=1;" vertex="1" parent="1">
          <mxGeometry x="935" y="300" width="40" height="40" as="geometry" />
        </mxCell>
        <mxCell id="D5-59caB8ugd7OCydNPS-13" value="" style="edgeStyle=orthogonalEdgeStyle;rounded=0;orthogonalLoop=1;jettySize=auto;html=1;endArrow=block;endFill=0;" edge="1" parent="1" source="D5-59caB8ugd7OCydNPS-14" target="D5-59caB8ugd7OCydNPS-8">
          <mxGeometry relative="1" as="geometry">
            <Array as="points">
              <mxPoint x="1085" y="260" />
              <mxPoint x="955" y="260" />
            </Array>
          </mxGeometry>
        </mxCell>
        <mxCell id="D5-59caB8ugd7OCydNPS-14" value="예매&lt;div&gt;조회&lt;/div&gt;" style="ellipse;whiteSpace=wrap;html=1;" vertex="1" parent="1">
          <mxGeometry x="1065" y="300" width="40" height="40" as="geometry" />
        </mxCell>
        <mxCell id="D5-59caB8ugd7OCydNPS-22" value="" style="edgeStyle=orthogonalEdgeStyle;rounded=0;orthogonalLoop=1;jettySize=auto;html=1;endArrow=block;endFill=0;entryX=0;entryY=0.5;entryDx=0;entryDy=0;exitX=0.5;exitY=0;exitDx=0;exitDy=0;" edge="1" parent="1" source="D5-59caB8ugd7OCydNPS-5" target="D5-59caB8ugd7OCydNPS-10">
          <mxGeometry relative="1" as="geometry">
            <mxPoint x="810" y="395" as="sourcePoint" />
            <mxPoint x="815" y="340" as="targetPoint" />
          </mxGeometry>
        </mxCell>
        <mxCell id="D5-59caB8ugd7OCydNPS-23" value="" style="edgeStyle=orthogonalEdgeStyle;rounded=0;orthogonalLoop=1;jettySize=auto;html=1;endArrow=block;endFill=0;entryX=0.222;entryY=0.9;entryDx=0;entryDy=0;entryPerimeter=0;exitX=0.5;exitY=0;exitDx=0;exitDy=0;" edge="1" parent="1" source="D5-59caB8ugd7OCydNPS-3" target="D5-59caB8ugd7OCydNPS-2">
          <mxGeometry relative="1" as="geometry">
            <mxPoint x="920" y="605" as="sourcePoint" />
            <mxPoint x="920" y="560" as="targetPoint" />
          </mxGeometry>
        </mxCell>
        <mxCell id="D5-59caB8ugd7OCydNPS-24" value="" style="edgeStyle=orthogonalEdgeStyle;rounded=0;orthogonalLoop=1;jettySize=auto;html=1;endArrow=block;endFill=0;entryX=0.656;entryY=0.98;entryDx=0;entryDy=0;entryPerimeter=0;exitX=0.5;exitY=0;exitDx=0;exitDy=0;" edge="1" parent="1" source="D5-59caB8ugd7OCydNPS-4" target="D5-59caB8ugd7OCydNPS-2">
          <mxGeometry relative="1" as="geometry">
            <mxPoint x="950" y="635" as="sourcePoint" />
            <mxPoint x="950" y="590" as="targetPoint" />
          </mxGeometry>
        </mxCell>
        <mxCell id="D5-59caB8ugd7OCydNPS-25" value="" style="edgeStyle=orthogonalEdgeStyle;rounded=0;orthogonalLoop=1;jettySize=auto;html=1;endArrow=block;endFill=0;entryX=0;entryY=1;entryDx=0;entryDy=0;exitX=0.5;exitY=0;exitDx=0;exitDy=0;" edge="1" parent="1" source="D5-59caB8ugd7OCydNPS-6" target="D5-59caB8ugd7OCydNPS-5">
          <mxGeometry relative="1" as="geometry">
            <mxPoint x="750" y="595" as="sourcePoint" />
            <mxPoint x="750" y="550" as="targetPoint" />
          </mxGeometry>
        </mxCell>
        <mxCell id="D5-59caB8ugd7OCydNPS-26" value="" style="edgeStyle=orthogonalEdgeStyle;rounded=0;orthogonalLoop=1;jettySize=auto;html=1;endArrow=block;endFill=0;entryX=0.789;entryY=0.92;entryDx=0;entryDy=0;entryPerimeter=0;exitX=0.5;exitY=0;exitDx=0;exitDy=0;" edge="1" parent="1" source="D5-59caB8ugd7OCydNPS-7" target="D5-59caB8ugd7OCydNPS-5">
          <mxGeometry relative="1" as="geometry">
            <mxPoint x="750" y="635" as="sourcePoint" />
            <mxPoint x="750" y="590" as="targetPoint" />
          </mxGeometry>
        </mxCell>
        <mxCell id="D5-59caB8ugd7OCydNPS-27" value="use" style="html=1;verticalAlign=bottom;endArrow=block;curved=0;rounded=0;entryX=0;entryY=0.5;entryDx=0;entryDy=0;exitX=1;exitY=0.3333333333333333;exitDx=0;exitDy=0;exitPerimeter=0;" edge="1" parent="1" source="2nGRQFnEJMKm2sC9qPeA-3" target="2nGRQFnEJMKm2sC9qPeA-12">
          <mxGeometry width="80" relative="1" as="geometry">
            <mxPoint x="250" y="1035" as="sourcePoint" />
            <mxPoint x="559" y="820" as="targetPoint" />
          </mxGeometry>
        </mxCell>
        <mxCell id="D5-59caB8ugd7OCydNPS-28" value="use" style="html=1;verticalAlign=bottom;endArrow=block;curved=0;rounded=0;entryX=0.071;entryY=0.857;entryDx=0;entryDy=0;entryPerimeter=0;exitX=1;exitY=0.3333333333333333;exitDx=0;exitDy=0;exitPerimeter=0;" edge="1" parent="1" source="2nGRQFnEJMKm2sC9qPeA-3" target="2nGRQFnEJMKm2sC9qPeA-33">
          <mxGeometry width="80" relative="1" as="geometry">
            <mxPoint x="170" y="775" as="sourcePoint" />
            <mxPoint x="479" y="560" as="targetPoint" />
          </mxGeometry>
        </mxCell>
        <mxCell id="D5-59caB8ugd7OCydNPS-29" value="관리자" style="shape=umlActor;verticalLabelPosition=bottom;verticalAlign=top;html=1;" vertex="1" parent="1">
          <mxGeometry x="1380" y="450" width="30" height="60" as="geometry" />
        </mxCell>
        <mxCell id="D5-59caB8ugd7OCydNPS-30" value="use" style="html=1;verticalAlign=bottom;startArrow=none;startFill=0;endArrow=block;startSize=8;curved=0;rounded=0;exitX=0.304;exitY=0.741;exitDx=0;exitDy=0;exitPerimeter=0;entryX=1;entryY=0.5;entryDx=0;entryDy=0;" edge="1" parent="1" source="D5-59caB8ugd7OCydNPS-29" target="2nGRQFnEJMKm2sC9qPeA-13">
          <mxGeometry width="60" relative="1" as="geometry">
            <mxPoint x="1290" y="620" as="sourcePoint" />
            <mxPoint x="1350" y="620" as="targetPoint" />
          </mxGeometry>
        </mxCell>
        <mxCell id="D5-59caB8ugd7OCydNPS-31" value="use" style="html=1;verticalAlign=bottom;endArrow=block;curved=0;rounded=0;entryX=0;entryY=0.5;entryDx=0;entryDy=0;" edge="1" parent="1" source="2nGRQFnEJMKm2sC9qPeA-2" target="D5-59caB8ugd7OCydNPS-8">
          <mxGeometry width="80" relative="1" as="geometry">
            <mxPoint x="640" y="615" as="sourcePoint" />
            <mxPoint x="949" y="400" as="targetPoint" />
          </mxGeometry>
        </mxCell>
        <mxCell id="D5-59caB8ugd7OCydNPS-32" value="use" style="html=1;verticalAlign=bottom;endArrow=block;curved=0;rounded=0;entryX=0;entryY=0.5;entryDx=0;entryDy=0;exitX=1;exitY=0.3333333333333333;exitDx=0;exitDy=0;exitPerimeter=0;" edge="1" parent="1" source="2nGRQFnEJMKm2sC9qPeA-3" target="D5-59caB8ugd7OCydNPS-8">
          <mxGeometry width="80" relative="1" as="geometry">
            <mxPoint x="480" y="925" as="sourcePoint" />
            <mxPoint x="789" y="710" as="targetPoint" />
          </mxGeometry>
        </mxCell>
        <mxCell id="D5-59caB8ugd7OCydNPS-34" value="use" style="html=1;verticalAlign=bottom;endArrow=block;curved=0;rounded=0;exitX=0.5;exitY=0.5;exitDx=0;exitDy=0;exitPerimeter=0;entryX=1;entryY=0.5;entryDx=0;entryDy=0;" edge="1" parent="1" source="D5-59caB8ugd7OCydNPS-29" target="D5-59caB8ugd7OCydNPS-14">
          <mxGeometry width="80" relative="1" as="geometry">
            <mxPoint x="1050" y="520" as="sourcePoint" />
            <mxPoint x="1130" y="520" as="targetPoint" />
          </mxGeometry>
        </mxCell>
      </root>
    </mxGraphModel>
  </diagram>
</mxfile>
